<mxfile host="Electron" modified="2024-06-08T02:45:50.957Z" agent="Mozilla/5.0 (Windows NT 10.0; Win64; x64) AppleWebKit/537.36 (KHTML, like Gecko) draw.io/24.4.8 Chrome/124.0.6367.207 Electron/30.0.6 Safari/537.36" etag="hjjMNwsBnStgYp0m2BLY" version="24.4.8" type="device">
  <diagram name="Page-1" id="KZN-zyBD-0XipZeYQRDT">
    <mxGraphModel dx="557" dy="322" grid="1" gridSize="10" guides="1" tooltips="1" connect="1" arrows="1" fold="1" page="1" pageScale="1" pageWidth="500" pageHeight="200" math="0" shadow="0">
      <root>
        <mxCell id="0" />
        <mxCell id="1" parent="0" />
        <mxCell id="YWnN6yYvFibIZi6fZtN4-12" value="" style="group" vertex="1" connectable="0" parent="1">
          <mxGeometry x="9" y="78" width="482.6" height="44.45" as="geometry" />
        </mxCell>
        <mxCell id="9eh16xiQdjSHdPkHuFP6-378" value="" style="rounded=0;whiteSpace=wrap;html=1;strokeColor=#aaaaaa;fillColor=#bfbfbf;strokeWidth=1;container=0;part=1;movable=1;resizable=1;rotatable=1;deletable=1;editable=1;locked=0;connectable=1;" parent="YWnN6yYvFibIZi6fZtN4-12" vertex="1">
          <mxGeometry width="482.6" height="44.45" as="geometry" />
        </mxCell>
        <mxCell id="9eh16xiQdjSHdPkHuFP6-379" value="" style="rounded=0;whiteSpace=wrap;html=1;strokeColor=#aaaaaa;fillColor=#222222;strokeWidth=1;movable=1;resizable=1;rotatable=1;deletable=1;editable=1;locked=0;connectable=1;container=0;" parent="YWnN6yYvFibIZi6fZtN4-12" vertex="1">
          <mxGeometry x="18" width="446.6" height="44.45" as="geometry" />
        </mxCell>
        <mxCell id="jP2WbbBxQBNUkDRbYnSl-231" value="" style="rounded=0;whiteSpace=wrap;html=1;fillColor=#000000;fontColor=#ffffff;strokeColor=none;container=0;" parent="YWnN6yYvFibIZi6fZtN4-12" vertex="1">
          <mxGeometry x="7" y="19.224999999999994" width="4" height="6" as="geometry" />
        </mxCell>
        <mxCell id="jP2WbbBxQBNUkDRbYnSl-232" value="" style="ellipse;whiteSpace=wrap;html=1;aspect=fixed;strokeColor=none;fillColor=#000000;container=0;" parent="YWnN6yYvFibIZi6fZtN4-12" vertex="1">
          <mxGeometry x="8" y="19.224999999999994" width="6" height="6" as="geometry" />
        </mxCell>
        <mxCell id="jP2WbbBxQBNUkDRbYnSl-233" value="" style="ellipse;whiteSpace=wrap;html=1;aspect=fixed;strokeColor=none;fillColor=#000000;container=0;" parent="YWnN6yYvFibIZi6fZtN4-12" vertex="1">
          <mxGeometry x="4" y="19.224999999999994" width="6" height="6" as="geometry" />
        </mxCell>
        <mxCell id="wEfOMtyTKLQo5fzBktWI-2" value="" style="rounded=0;whiteSpace=wrap;html=1;fillColor=#000000;fontColor=#ffffff;strokeColor=none;container=0;" parent="YWnN6yYvFibIZi6fZtN4-12" vertex="1">
          <mxGeometry x="471.59625000000017" y="19.224999999999994" width="4" height="6" as="geometry" />
        </mxCell>
        <mxCell id="wEfOMtyTKLQo5fzBktWI-3" value="" style="ellipse;whiteSpace=wrap;html=1;aspect=fixed;strokeColor=none;fillColor=#000000;container=0;" parent="YWnN6yYvFibIZi6fZtN4-12" vertex="1">
          <mxGeometry x="472.59625000000017" y="19.224999999999994" width="6" height="6" as="geometry" />
        </mxCell>
        <mxCell id="wEfOMtyTKLQo5fzBktWI-4" value="" style="ellipse;whiteSpace=wrap;html=1;aspect=fixed;strokeColor=none;fillColor=#000000;container=0;" parent="YWnN6yYvFibIZi6fZtN4-12" vertex="1">
          <mxGeometry x="468.59625000000017" y="19.224999999999994" width="6" height="6" as="geometry" />
        </mxCell>
        <mxCell id="jP2WbbBxQBNUkDRbYnSl-206" value="" style="rounded=0;whiteSpace=wrap;html=1;strokeColor=#aaaaaa;fillColor=#bfbfbf;strokeWidth=1;movable=1;resizable=1;rotatable=1;deletable=1;editable=1;locked=0;connectable=1;container=0;" parent="YWnN6yYvFibIZi6fZtN4-12" vertex="1">
          <mxGeometry x="7.99625" width="10" height="44.45" as="geometry" />
        </mxCell>
        <mxCell id="wEfOMtyTKLQo5fzBktWI-5" value="" style="rounded=0;whiteSpace=wrap;html=1;strokeColor=#aaaaaa;fillColor=#bfbfbf;strokeWidth=1;movable=1;resizable=1;rotatable=1;deletable=1;editable=1;locked=0;connectable=1;container=0;" parent="YWnN6yYvFibIZi6fZtN4-12" vertex="1">
          <mxGeometry x="464.60000000000014" width="10" height="44.45" as="geometry" />
        </mxCell>
        <mxCell id="s0dWRtyi07ZF37cMcm2--64" value="" style="rounded=0;whiteSpace=wrap;html=1;strokeColor=none;fillColor=#000000;strokeWidth=1;movable=1;resizable=1;rotatable=1;deletable=1;editable=1;locked=0;connectable=1;container=0;" parent="YWnN6yYvFibIZi6fZtN4-12" vertex="1">
          <mxGeometry x="18.5" y="14.450000000000003" width="445.6" height="29.5" as="geometry" />
        </mxCell>
        <mxCell id="4ou6pQqf3mK2EiXASReZ-238" value="" style="rounded=1;whiteSpace=wrap;html=1;strokeColor=none;fillColor=#222222;strokeWidth=0.2;movable=1;resizable=1;rotatable=1;deletable=1;editable=1;locked=0;connectable=1;container=0;align=center;verticalAlign=middle;fontFamily=Helvetica;fontSize=12;fontColor=default;gradientColor=#111111;gradientDirection=radial;arcSize=10;" parent="YWnN6yYvFibIZi6fZtN4-12" vertex="1">
          <mxGeometry x="396.3" y="1.5" width="66" height="12" as="geometry" />
        </mxCell>
        <mxCell id="4ou6pQqf3mK2EiXASReZ-240" value="" style="ellipse;whiteSpace=wrap;html=1;strokeColor=#000000;fillColor=#60a917;fontColor=#ffffff;movable=1;resizable=1;rotatable=1;deletable=1;editable=1;locked=0;connectable=1;container=0;strokeWidth=0.1;" parent="YWnN6yYvFibIZi6fZtN4-12" vertex="1">
          <mxGeometry x="410" y="8" width="4" height="4" as="geometry" />
        </mxCell>
        <mxCell id="4ou6pQqf3mK2EiXASReZ-243" value="" style="strokeWidth=0.1;html=1;shape=mxgraph.flowchart.database;whiteSpace=wrap;strokeColor=default;fillColor=none;movable=1;resizable=1;rotatable=1;deletable=1;editable=1;locked=0;connectable=1;container=0;" parent="YWnN6yYvFibIZi6fZtN4-12" vertex="1">
          <mxGeometry x="428" y="3" width="4" height="4" as="geometry" />
        </mxCell>
        <mxCell id="4ou6pQqf3mK2EiXASReZ-244" value="" style="sketch=0;pointerEvents=1;shadow=0;dashed=0;html=1;strokeColor=none;fillColor=#FFFFFF;labelPosition=center;verticalLabelPosition=bottom;verticalAlign=top;align=center;outlineConnect=0;shape=mxgraph.vvd.infrastructure;movable=1;resizable=1;rotatable=1;deletable=1;editable=1;locked=0;connectable=1;container=0;" parent="YWnN6yYvFibIZi6fZtN4-12" vertex="1">
          <mxGeometry x="416" y="3" width="4" height="4" as="geometry" />
        </mxCell>
        <mxCell id="4ou6pQqf3mK2EiXASReZ-245" value="" style="triangle;whiteSpace=wrap;html=1;rotation=-90;fillColor=none;strokeWidth=0.1;movable=1;resizable=1;rotatable=1;deletable=1;editable=1;locked=0;connectable=1;container=0;" parent="YWnN6yYvFibIZi6fZtN4-12" vertex="1">
          <mxGeometry x="410" y="3" width="4" height="4" as="geometry" />
        </mxCell>
        <mxCell id="4ou6pQqf3mK2EiXASReZ-246" value="" style="sketch=0;html=1;strokeColor=default;shadow=0;fillColor=none;verticalAlign=top;labelPosition=center;verticalLabelPosition=bottom;shape=mxgraph.gcp2.a7_power;gradientColor=none;strokeWidth=0.1;movable=1;resizable=1;rotatable=1;deletable=1;editable=1;locked=0;connectable=1;container=0;" parent="YWnN6yYvFibIZi6fZtN4-12" vertex="1">
          <mxGeometry x="434" y="3" width="4" height="4" as="geometry" />
        </mxCell>
        <mxCell id="4ou6pQqf3mK2EiXASReZ-247" value="" style="ellipse;whiteSpace=wrap;html=1;strokeColor=#000000;fillColor=#60a917;fontColor=#ffffff;movable=1;resizable=1;rotatable=1;deletable=1;editable=1;locked=0;connectable=1;container=0;strokeWidth=0.1;" parent="YWnN6yYvFibIZi6fZtN4-12" vertex="1">
          <mxGeometry x="416" y="8" width="4" height="4" as="geometry" />
        </mxCell>
        <mxCell id="4ou6pQqf3mK2EiXASReZ-248" value="" style="ellipse;whiteSpace=wrap;html=1;strokeColor=#000000;fillColor=#60a917;fontColor=#ffffff;movable=1;resizable=1;rotatable=1;deletable=1;editable=1;locked=0;connectable=1;container=0;strokeWidth=0.1;" parent="YWnN6yYvFibIZi6fZtN4-12" vertex="1">
          <mxGeometry x="422" y="8" width="4" height="4" as="geometry" />
        </mxCell>
        <mxCell id="4ou6pQqf3mK2EiXASReZ-249" value="" style="ellipse;whiteSpace=wrap;html=1;strokeColor=#000000;fillColor=#60a917;fontColor=#ffffff;movable=1;resizable=1;rotatable=1;deletable=1;editable=1;locked=0;connectable=1;container=0;strokeWidth=0.1;" parent="YWnN6yYvFibIZi6fZtN4-12" vertex="1">
          <mxGeometry x="428" y="8" width="4" height="4" as="geometry" />
        </mxCell>
        <mxCell id="4ou6pQqf3mK2EiXASReZ-250" value="" style="ellipse;whiteSpace=wrap;html=1;strokeColor=#000000;fillColor=#60a917;fontColor=#ffffff;movable=1;resizable=1;rotatable=1;deletable=1;editable=1;locked=0;connectable=1;container=0;strokeWidth=0.1;" parent="YWnN6yYvFibIZi6fZtN4-12" vertex="1">
          <mxGeometry x="434" y="8" width="4" height="4" as="geometry" />
        </mxCell>
        <mxCell id="4ou6pQqf3mK2EiXASReZ-251" value="" style="sketch=0;pointerEvents=1;shadow=0;dashed=0;html=1;strokeColor=none;fillColor=#FFFFFF;labelPosition=center;verticalLabelPosition=bottom;verticalAlign=top;align=center;outlineConnect=0;shape=mxgraph.vvd.infrastructure;movable=1;resizable=1;rotatable=1;deletable=1;editable=1;locked=0;connectable=1;container=0;" parent="YWnN6yYvFibIZi6fZtN4-12" vertex="1">
          <mxGeometry x="422" y="3" width="4" height="4" as="geometry" />
        </mxCell>
        <mxCell id="4ou6pQqf3mK2EiXASReZ-262" value="" style="group;rounded=1;arcSize=50;strokeColor=#111111;strokeWidth=2;" parent="YWnN6yYvFibIZi6fZtN4-12" vertex="1" connectable="0">
          <mxGeometry x="452" y="4.000434782608693" width="7" height="7" as="geometry" />
        </mxCell>
        <mxCell id="4ou6pQqf3mK2EiXASReZ-263" value="" style="ellipse;whiteSpace=wrap;html=1;strokeColor=#000000;fillColor=#6F0000;fontColor=#ffffff;movable=1;resizable=1;rotatable=1;deletable=1;editable=1;locked=0;connectable=1;container=0;strokeWidth=0.1;" parent="4ou6pQqf3mK2EiXASReZ-262" vertex="1">
          <mxGeometry width="7" height="7" as="geometry" />
        </mxCell>
        <mxCell id="4ou6pQqf3mK2EiXASReZ-264" value="" style="sketch=0;html=1;strokeColor=#470000;shadow=0;fillColor=none;verticalAlign=top;labelPosition=center;verticalLabelPosition=bottom;shape=mxgraph.gcp2.a7_power;gradientColor=none;strokeWidth=0.1;movable=1;resizable=1;rotatable=1;deletable=1;editable=1;locked=0;connectable=1;container=0;" parent="4ou6pQqf3mK2EiXASReZ-262" vertex="1">
          <mxGeometry x="1" y="0.9495652173913065" width="5" height="5" as="geometry" />
        </mxCell>
        <mxCell id="4ou6pQqf3mK2EiXASReZ-265" value="" style="group" parent="YWnN6yYvFibIZi6fZtN4-12" vertex="1" connectable="0">
          <mxGeometry x="445" y="5.000434782608693" width="4" height="4" as="geometry" />
        </mxCell>
        <mxCell id="4ou6pQqf3mK2EiXASReZ-266" value="" style="group;rounded=1;arcSize=50;strokeColor=#111111;strokeWidth=2;container=0;" parent="4ou6pQqf3mK2EiXASReZ-265" vertex="1" connectable="0">
          <mxGeometry width="4" height="4" as="geometry" />
        </mxCell>
        <mxCell id="4ou6pQqf3mK2EiXASReZ-267" value="" style="ellipse;whiteSpace=wrap;html=1;strokeColor=#000000;fillColor=#6F0000;fontColor=#ffffff;movable=1;resizable=1;rotatable=1;deletable=1;editable=1;locked=0;connectable=1;container=0;strokeWidth=0.1;" parent="4ou6pQqf3mK2EiXASReZ-265" vertex="1">
          <mxGeometry width="4" height="4" as="geometry" />
        </mxCell>
        <mxCell id="4ou6pQqf3mK2EiXASReZ-268" value="" style="group" parent="YWnN6yYvFibIZi6fZtN4-12" vertex="1" connectable="0">
          <mxGeometry x="403" y="8.500434782608693" width="3" height="3" as="geometry" />
        </mxCell>
        <mxCell id="4ou6pQqf3mK2EiXASReZ-269" value="" style="group;rounded=1;arcSize=50;strokeColor=#111111;strokeWidth=2;container=0;" parent="4ou6pQqf3mK2EiXASReZ-268" vertex="1" connectable="0">
          <mxGeometry width="3" height="3" as="geometry" />
        </mxCell>
        <mxCell id="4ou6pQqf3mK2EiXASReZ-270" value="" style="ellipse;whiteSpace=wrap;html=1;strokeColor=#000000;fillColor=#010101;fontColor=#ffffff;movable=1;resizable=1;rotatable=1;deletable=1;editable=1;locked=0;connectable=1;container=0;strokeWidth=0.1;" parent="4ou6pQqf3mK2EiXASReZ-268" vertex="1">
          <mxGeometry width="3" height="3" as="geometry" />
        </mxCell>
        <mxCell id="4ou6pQqf3mK2EiXASReZ-271" value="UID" style="text;html=1;align=center;verticalAlign=middle;whiteSpace=wrap;rounded=0;fontSize=2;" parent="YWnN6yYvFibIZi6fZtN4-12" vertex="1">
          <mxGeometry x="400" y="3.5" width="9" height="4" as="geometry" />
        </mxCell>
        <mxCell id="4ou6pQqf3mK2EiXASReZ-272" value="RESET" style="text;html=1;align=center;verticalAlign=middle;whiteSpace=wrap;rounded=0;fontSize=2;" parent="YWnN6yYvFibIZi6fZtN4-12" vertex="1">
          <mxGeometry x="442.5" y="9" width="9" height="4" as="geometry" />
        </mxCell>
        <mxCell id="lOCSN8-xL9tDfDZF2J6v-213" value="" style="group" parent="YWnN6yYvFibIZi6fZtN4-12" vertex="1" connectable="0">
          <mxGeometry x="20.3" y="16.200000000000003" width="442" height="26" as="geometry" />
        </mxCell>
        <mxCell id="lOCSN8-xL9tDfDZF2J6v-71" value="" style="group" parent="lOCSN8-xL9tDfDZF2J6v-213" vertex="1" connectable="0">
          <mxGeometry width="109" height="26" as="geometry" />
        </mxCell>
        <mxCell id="4ou6pQqf3mK2EiXASReZ-9" value="" style="rounded=0;whiteSpace=wrap;html=1;strokeColor=none;fillColor=#222222;strokeWidth=1;movable=1;resizable=1;rotatable=1;deletable=1;editable=1;locked=0;connectable=1;container=0;" parent="lOCSN8-xL9tDfDZF2J6v-71" vertex="1">
          <mxGeometry width="109" height="26" as="geometry" />
        </mxCell>
        <mxCell id="lOCSN8-xL9tDfDZF2J6v-2" value="" style="rounded=0;whiteSpace=wrap;html=1;strokeColor=none;fillColor=#333333;strokeWidth=1;movable=1;resizable=1;rotatable=1;deletable=1;editable=1;locked=0;connectable=1;container=0;gradientColor=#222222;gradientDirection=east;" parent="lOCSN8-xL9tDfDZF2J6v-71" vertex="1">
          <mxGeometry x="30" width="59" height="26" as="geometry" />
        </mxCell>
        <mxCell id="lOCSN8-xL9tDfDZF2J6v-3" value="" style="rounded=0;whiteSpace=wrap;html=1;strokeColor=none;fillColor=#333333;strokeWidth=1;movable=1;resizable=1;rotatable=1;deletable=1;editable=1;locked=0;connectable=1;container=0;gradientColor=#222222;gradientDirection=west;" parent="lOCSN8-xL9tDfDZF2J6v-71" vertex="1">
          <mxGeometry width="30" height="26" as="geometry" />
        </mxCell>
        <mxCell id="lOCSN8-xL9tDfDZF2J6v-5" value="" style="rounded=0;whiteSpace=wrap;html=1;strokeColor=none;fillColor=#333333;strokeWidth=1;movable=1;resizable=1;rotatable=1;deletable=1;editable=1;locked=0;connectable=1;container=0;gradientColor=#222222;gradientDirection=west;" parent="lOCSN8-xL9tDfDZF2J6v-71" vertex="1">
          <mxGeometry x="89" width="20" height="26" as="geometry" />
        </mxCell>
        <mxCell id="lOCSN8-xL9tDfDZF2J6v-13" value="" style="rounded=1;whiteSpace=wrap;html=1;strokeColor=none;fillColor=#111111;strokeWidth=0.1;movable=1;resizable=1;rotatable=1;deletable=1;editable=1;locked=0;connectable=1;container=0;gradientColor=none;gradientDirection=west;arcSize=32;" parent="lOCSN8-xL9tDfDZF2J6v-71" vertex="1">
          <mxGeometry x="2" y="3" width="5.5" height="5.5" as="geometry" />
        </mxCell>
        <mxCell id="lOCSN8-xL9tDfDZF2J6v-15" value="" style="rounded=1;whiteSpace=wrap;html=1;strokeColor=none;fillColor=#111111;strokeWidth=0.1;movable=1;resizable=1;rotatable=1;deletable=1;editable=1;locked=0;connectable=1;container=0;gradientColor=none;gradientDirection=west;arcSize=32;" parent="lOCSN8-xL9tDfDZF2J6v-71" vertex="1">
          <mxGeometry x="8.5" y="3" width="5.5" height="5.5" as="geometry" />
        </mxCell>
        <mxCell id="lOCSN8-xL9tDfDZF2J6v-16" value="" style="rounded=1;whiteSpace=wrap;html=1;strokeColor=none;fillColor=#111111;strokeWidth=0.1;movable=1;resizable=1;rotatable=1;deletable=1;editable=1;locked=0;connectable=1;container=0;gradientColor=none;gradientDirection=west;arcSize=32;" parent="lOCSN8-xL9tDfDZF2J6v-71" vertex="1">
          <mxGeometry x="15" y="3" width="5.5" height="5.5" as="geometry" />
        </mxCell>
        <mxCell id="lOCSN8-xL9tDfDZF2J6v-17" value="" style="rounded=1;whiteSpace=wrap;html=1;strokeColor=none;fillColor=#111111;strokeWidth=0.1;movable=1;resizable=1;rotatable=1;deletable=1;editable=1;locked=0;connectable=1;container=0;gradientColor=none;gradientDirection=west;arcSize=32;" parent="lOCSN8-xL9tDfDZF2J6v-71" vertex="1">
          <mxGeometry x="21.5" y="3" width="5.5" height="5.5" as="geometry" />
        </mxCell>
        <mxCell id="lOCSN8-xL9tDfDZF2J6v-18" value="" style="rounded=1;whiteSpace=wrap;html=1;strokeColor=none;fillColor=#111111;strokeWidth=0.1;movable=1;resizable=1;rotatable=1;deletable=1;editable=1;locked=0;connectable=1;container=0;gradientColor=none;gradientDirection=west;arcSize=32;" parent="lOCSN8-xL9tDfDZF2J6v-71" vertex="1">
          <mxGeometry x="28" y="3" width="5.5" height="5.5" as="geometry" />
        </mxCell>
        <mxCell id="lOCSN8-xL9tDfDZF2J6v-19" value="" style="rounded=1;whiteSpace=wrap;html=1;strokeColor=none;fillColor=#111111;strokeWidth=0.1;movable=1;resizable=1;rotatable=1;deletable=1;editable=1;locked=0;connectable=1;container=0;gradientColor=none;gradientDirection=west;arcSize=32;" parent="lOCSN8-xL9tDfDZF2J6v-71" vertex="1">
          <mxGeometry x="34.5" y="3" width="5.5" height="5.5" as="geometry" />
        </mxCell>
        <mxCell id="lOCSN8-xL9tDfDZF2J6v-20" value="" style="rounded=1;whiteSpace=wrap;html=1;strokeColor=none;fillColor=#111111;strokeWidth=0.1;movable=1;resizable=1;rotatable=1;deletable=1;editable=1;locked=0;connectable=1;container=0;gradientColor=none;gradientDirection=west;arcSize=32;" parent="lOCSN8-xL9tDfDZF2J6v-71" vertex="1">
          <mxGeometry x="41" y="3" width="5.5" height="5.5" as="geometry" />
        </mxCell>
        <mxCell id="lOCSN8-xL9tDfDZF2J6v-21" value="" style="rounded=1;whiteSpace=wrap;html=1;strokeColor=none;fillColor=#111111;strokeWidth=0.1;movable=1;resizable=1;rotatable=1;deletable=1;editable=1;locked=0;connectable=1;container=0;gradientColor=none;gradientDirection=west;arcSize=32;" parent="lOCSN8-xL9tDfDZF2J6v-71" vertex="1">
          <mxGeometry x="47.5" y="3" width="5.5" height="5.5" as="geometry" />
        </mxCell>
        <mxCell id="lOCSN8-xL9tDfDZF2J6v-22" value="" style="rounded=1;whiteSpace=wrap;html=1;strokeColor=none;fillColor=#111111;strokeWidth=0.1;movable=1;resizable=1;rotatable=1;deletable=1;editable=1;locked=0;connectable=1;container=0;gradientColor=none;gradientDirection=west;arcSize=32;" parent="lOCSN8-xL9tDfDZF2J6v-71" vertex="1">
          <mxGeometry x="54" y="3" width="5.5" height="5.5" as="geometry" />
        </mxCell>
        <mxCell id="lOCSN8-xL9tDfDZF2J6v-23" value="" style="rounded=1;whiteSpace=wrap;html=1;strokeColor=none;fillColor=#111111;strokeWidth=0.1;movable=1;resizable=1;rotatable=1;deletable=1;editable=1;locked=0;connectable=1;container=0;gradientColor=none;gradientDirection=west;arcSize=32;" parent="lOCSN8-xL9tDfDZF2J6v-71" vertex="1">
          <mxGeometry x="60.5" y="3" width="5.5" height="5.5" as="geometry" />
        </mxCell>
        <mxCell id="lOCSN8-xL9tDfDZF2J6v-24" value="" style="rounded=1;whiteSpace=wrap;html=1;strokeColor=none;fillColor=#111111;strokeWidth=0.1;movable=1;resizable=1;rotatable=1;deletable=1;editable=1;locked=0;connectable=1;container=0;gradientColor=none;gradientDirection=west;arcSize=32;" parent="lOCSN8-xL9tDfDZF2J6v-71" vertex="1">
          <mxGeometry x="67" y="3" width="5.5" height="5.5" as="geometry" />
        </mxCell>
        <mxCell id="lOCSN8-xL9tDfDZF2J6v-25" value="" style="rounded=1;whiteSpace=wrap;html=1;strokeColor=none;fillColor=#111111;strokeWidth=0.1;movable=1;resizable=1;rotatable=1;deletable=1;editable=1;locked=0;connectable=1;container=0;gradientColor=none;gradientDirection=west;arcSize=32;" parent="lOCSN8-xL9tDfDZF2J6v-71" vertex="1">
          <mxGeometry x="73.5" y="3" width="5.5" height="5.5" as="geometry" />
        </mxCell>
        <mxCell id="lOCSN8-xL9tDfDZF2J6v-26" value="" style="rounded=1;whiteSpace=wrap;html=1;strokeColor=none;fillColor=#111111;strokeWidth=0.1;movable=1;resizable=1;rotatable=1;deletable=1;editable=1;locked=0;connectable=1;container=0;gradientColor=none;gradientDirection=west;arcSize=32;" parent="lOCSN8-xL9tDfDZF2J6v-71" vertex="1">
          <mxGeometry x="80" y="3" width="5.5" height="5.5" as="geometry" />
        </mxCell>
        <mxCell id="lOCSN8-xL9tDfDZF2J6v-27" value="" style="rounded=1;whiteSpace=wrap;html=1;strokeColor=none;fillColor=#111111;strokeWidth=0.1;movable=1;resizable=1;rotatable=1;deletable=1;editable=1;locked=0;connectable=1;container=0;gradientColor=none;gradientDirection=west;arcSize=32;" parent="lOCSN8-xL9tDfDZF2J6v-71" vertex="1">
          <mxGeometry x="86.5" y="3" width="5.5" height="5.5" as="geometry" />
        </mxCell>
        <mxCell id="lOCSN8-xL9tDfDZF2J6v-28" value="" style="rounded=1;whiteSpace=wrap;html=1;strokeColor=none;fillColor=#111111;strokeWidth=0.1;movable=1;resizable=1;rotatable=1;deletable=1;editable=1;locked=0;connectable=1;container=0;gradientColor=none;gradientDirection=west;arcSize=32;" parent="lOCSN8-xL9tDfDZF2J6v-71" vertex="1">
          <mxGeometry x="93" y="3" width="5.5" height="5.5" as="geometry" />
        </mxCell>
        <mxCell id="lOCSN8-xL9tDfDZF2J6v-29" value="" style="rounded=1;whiteSpace=wrap;html=1;strokeColor=none;fillColor=#111111;strokeWidth=0.1;movable=1;resizable=1;rotatable=1;deletable=1;editable=1;locked=0;connectable=1;container=0;gradientColor=none;gradientDirection=west;arcSize=32;" parent="lOCSN8-xL9tDfDZF2J6v-71" vertex="1">
          <mxGeometry x="2" y="9.5" width="5.5" height="5.5" as="geometry" />
        </mxCell>
        <mxCell id="lOCSN8-xL9tDfDZF2J6v-30" value="" style="rounded=1;whiteSpace=wrap;html=1;strokeColor=none;fillColor=#111111;strokeWidth=0.1;movable=1;resizable=1;rotatable=1;deletable=1;editable=1;locked=0;connectable=1;container=0;gradientColor=none;gradientDirection=west;arcSize=32;" parent="lOCSN8-xL9tDfDZF2J6v-71" vertex="1">
          <mxGeometry x="8.5" y="9.5" width="5.5" height="5.5" as="geometry" />
        </mxCell>
        <mxCell id="lOCSN8-xL9tDfDZF2J6v-31" value="" style="rounded=1;whiteSpace=wrap;html=1;strokeColor=none;fillColor=#111111;strokeWidth=0.1;movable=1;resizable=1;rotatable=1;deletable=1;editable=1;locked=0;connectable=1;container=0;gradientColor=none;gradientDirection=west;arcSize=32;" parent="lOCSN8-xL9tDfDZF2J6v-71" vertex="1">
          <mxGeometry x="15" y="9.5" width="5.5" height="5.5" as="geometry" />
        </mxCell>
        <mxCell id="lOCSN8-xL9tDfDZF2J6v-32" value="" style="rounded=1;whiteSpace=wrap;html=1;strokeColor=none;fillColor=#111111;strokeWidth=0.1;movable=1;resizable=1;rotatable=1;deletable=1;editable=1;locked=0;connectable=1;container=0;gradientColor=none;gradientDirection=west;arcSize=32;" parent="lOCSN8-xL9tDfDZF2J6v-71" vertex="1">
          <mxGeometry x="21.5" y="9.5" width="5.5" height="5.5" as="geometry" />
        </mxCell>
        <mxCell id="lOCSN8-xL9tDfDZF2J6v-33" value="" style="rounded=1;whiteSpace=wrap;html=1;strokeColor=none;fillColor=#111111;strokeWidth=0.1;movable=1;resizable=1;rotatable=1;deletable=1;editable=1;locked=0;connectable=1;container=0;gradientColor=none;gradientDirection=west;arcSize=32;" parent="lOCSN8-xL9tDfDZF2J6v-71" vertex="1">
          <mxGeometry x="28" y="9.5" width="5.5" height="5.5" as="geometry" />
        </mxCell>
        <mxCell id="lOCSN8-xL9tDfDZF2J6v-34" value="" style="rounded=1;whiteSpace=wrap;html=1;strokeColor=none;fillColor=#111111;strokeWidth=0.1;movable=1;resizable=1;rotatable=1;deletable=1;editable=1;locked=0;connectable=1;container=0;gradientColor=none;gradientDirection=west;arcSize=32;" parent="lOCSN8-xL9tDfDZF2J6v-71" vertex="1">
          <mxGeometry x="34.5" y="9.5" width="5.5" height="5.5" as="geometry" />
        </mxCell>
        <mxCell id="lOCSN8-xL9tDfDZF2J6v-35" value="" style="rounded=1;whiteSpace=wrap;html=1;strokeColor=none;fillColor=#111111;strokeWidth=0.1;movable=1;resizable=1;rotatable=1;deletable=1;editable=1;locked=0;connectable=1;container=0;gradientColor=none;gradientDirection=west;arcSize=32;" parent="lOCSN8-xL9tDfDZF2J6v-71" vertex="1">
          <mxGeometry x="41" y="9.5" width="5.5" height="5.5" as="geometry" />
        </mxCell>
        <mxCell id="lOCSN8-xL9tDfDZF2J6v-36" value="" style="rounded=1;whiteSpace=wrap;html=1;strokeColor=none;fillColor=#111111;strokeWidth=0.1;movable=1;resizable=1;rotatable=1;deletable=1;editable=1;locked=0;connectable=1;container=0;gradientColor=none;gradientDirection=west;arcSize=32;" parent="lOCSN8-xL9tDfDZF2J6v-71" vertex="1">
          <mxGeometry x="47.5" y="9.5" width="5.5" height="5.5" as="geometry" />
        </mxCell>
        <mxCell id="lOCSN8-xL9tDfDZF2J6v-37" value="" style="rounded=1;whiteSpace=wrap;html=1;strokeColor=none;fillColor=#111111;strokeWidth=0.1;movable=1;resizable=1;rotatable=1;deletable=1;editable=1;locked=0;connectable=1;container=0;gradientColor=none;gradientDirection=west;arcSize=32;" parent="lOCSN8-xL9tDfDZF2J6v-71" vertex="1">
          <mxGeometry x="54" y="9.5" width="5.5" height="5.5" as="geometry" />
        </mxCell>
        <mxCell id="lOCSN8-xL9tDfDZF2J6v-38" value="" style="rounded=1;whiteSpace=wrap;html=1;strokeColor=none;fillColor=#111111;strokeWidth=0.1;movable=1;resizable=1;rotatable=1;deletable=1;editable=1;locked=0;connectable=1;container=0;gradientColor=none;gradientDirection=west;arcSize=32;" parent="lOCSN8-xL9tDfDZF2J6v-71" vertex="1">
          <mxGeometry x="60.5" y="9.5" width="5.5" height="5.5" as="geometry" />
        </mxCell>
        <mxCell id="lOCSN8-xL9tDfDZF2J6v-39" value="" style="rounded=1;whiteSpace=wrap;html=1;strokeColor=none;fillColor=#111111;strokeWidth=0.1;movable=1;resizable=1;rotatable=1;deletable=1;editable=1;locked=0;connectable=1;container=0;gradientColor=none;gradientDirection=west;arcSize=32;" parent="lOCSN8-xL9tDfDZF2J6v-71" vertex="1">
          <mxGeometry x="67" y="9.5" width="5.5" height="5.5" as="geometry" />
        </mxCell>
        <mxCell id="lOCSN8-xL9tDfDZF2J6v-40" value="" style="rounded=1;whiteSpace=wrap;html=1;strokeColor=none;fillColor=#111111;strokeWidth=0.1;movable=1;resizable=1;rotatable=1;deletable=1;editable=1;locked=0;connectable=1;container=0;gradientColor=none;gradientDirection=west;arcSize=32;" parent="lOCSN8-xL9tDfDZF2J6v-71" vertex="1">
          <mxGeometry x="73.5" y="9.5" width="5.5" height="5.5" as="geometry" />
        </mxCell>
        <mxCell id="lOCSN8-xL9tDfDZF2J6v-41" value="" style="rounded=1;whiteSpace=wrap;html=1;strokeColor=none;fillColor=#111111;strokeWidth=0.1;movable=1;resizable=1;rotatable=1;deletable=1;editable=1;locked=0;connectable=1;container=0;gradientColor=none;gradientDirection=west;arcSize=32;" parent="lOCSN8-xL9tDfDZF2J6v-71" vertex="1">
          <mxGeometry x="80" y="9.5" width="5.5" height="5.5" as="geometry" />
        </mxCell>
        <mxCell id="lOCSN8-xL9tDfDZF2J6v-42" value="" style="rounded=1;whiteSpace=wrap;html=1;strokeColor=none;fillColor=#111111;strokeWidth=0.1;movable=1;resizable=1;rotatable=1;deletable=1;editable=1;locked=0;connectable=1;container=0;gradientColor=none;gradientDirection=west;arcSize=32;" parent="lOCSN8-xL9tDfDZF2J6v-71" vertex="1">
          <mxGeometry x="86.5" y="9.5" width="5.5" height="5.5" as="geometry" />
        </mxCell>
        <mxCell id="lOCSN8-xL9tDfDZF2J6v-43" value="" style="rounded=1;whiteSpace=wrap;html=1;strokeColor=none;fillColor=#111111;strokeWidth=0.1;movable=1;resizable=1;rotatable=1;deletable=1;editable=1;locked=0;connectable=1;container=0;gradientColor=none;gradientDirection=west;arcSize=32;" parent="lOCSN8-xL9tDfDZF2J6v-71" vertex="1">
          <mxGeometry x="93" y="9.5" width="5.5" height="5.5" as="geometry" />
        </mxCell>
        <mxCell id="4ou6pQqf3mK2EiXASReZ-27" value="" style="rounded=1;whiteSpace=wrap;html=1;strokeColor=#111111;fillColor=#008a00;fontColor=#ffffff;container=0;arcSize=50;strokeWidth=0.3;" parent="lOCSN8-xL9tDfDZF2J6v-71" vertex="1">
          <mxGeometry x="104" y="5" width="4" height="4" as="geometry" />
        </mxCell>
        <mxCell id="4ou6pQqf3mK2EiXASReZ-28" value="" style="rounded=1;whiteSpace=wrap;html=1;strokeColor=#111111;fillColor=#750000;fontColor=#ffffff;container=0;arcSize=50;strokeWidth=0.3;" parent="lOCSN8-xL9tDfDZF2J6v-71" vertex="1">
          <mxGeometry x="104" y="10" width="4" height="4" as="geometry" />
        </mxCell>
        <mxCell id="4ou6pQqf3mK2EiXASReZ-30" value="" style="strokeWidth=0.1;html=1;shape=mxgraph.flowchart.database;whiteSpace=wrap;strokeColor=#010101;fillColor=none;movable=1;resizable=1;rotatable=1;deletable=1;editable=1;locked=0;connectable=1;container=0;" parent="lOCSN8-xL9tDfDZF2J6v-71" vertex="1">
          <mxGeometry x="100" y="5.5" width="3" height="3" as="geometry" />
        </mxCell>
        <mxCell id="4ou6pQqf3mK2EiXASReZ-29" value="" style="strokeWidth=0.1;html=1;shape=mxgraph.flowchart.database;whiteSpace=wrap;strokeColor=#010101;fillColor=none;movable=1;resizable=1;rotatable=1;deletable=1;editable=1;locked=0;connectable=1;container=0;" parent="lOCSN8-xL9tDfDZF2J6v-71" vertex="1">
          <mxGeometry x="100" y="10.5" width="3" height="3" as="geometry" />
        </mxCell>
        <mxCell id="4ou6pQqf3mK2EiXASReZ-31" value="" style="shape=mxgraph.sysml.x;strokeWidth=0.1;strokeColor=#010101;container=0;" parent="lOCSN8-xL9tDfDZF2J6v-71" vertex="1">
          <mxGeometry x="100" y="10.5" width="3" height="3" as="geometry" />
        </mxCell>
        <mxCell id="lOCSN8-xL9tDfDZF2J6v-12" value="" style="rounded=0;whiteSpace=wrap;html=1;strokeColor=none;fillColor=#111111;strokeWidth=0.1;movable=1;resizable=1;rotatable=1;deletable=1;editable=1;locked=0;connectable=1;container=0;gradientColor=none;gradientDirection=west;" parent="lOCSN8-xL9tDfDZF2J6v-71" vertex="1">
          <mxGeometry y="17" width="109" height="8" as="geometry" />
        </mxCell>
        <mxCell id="lOCSN8-xL9tDfDZF2J6v-6" value="" style="rounded=0;whiteSpace=wrap;html=1;strokeColor=none;fillColor=#333333;strokeWidth=1;movable=1;resizable=1;rotatable=1;deletable=1;editable=1;locked=0;connectable=1;container=0;gradientColor=#222222;gradientDirection=east;" parent="lOCSN8-xL9tDfDZF2J6v-71" vertex="1">
          <mxGeometry x="34" y="18" width="50" height="6" as="geometry" />
        </mxCell>
        <mxCell id="lOCSN8-xL9tDfDZF2J6v-7" value="" style="rounded=0;whiteSpace=wrap;html=1;strokeColor=none;fillColor=#333333;strokeWidth=1;movable=1;resizable=1;rotatable=1;deletable=1;editable=1;locked=0;connectable=1;container=0;gradientColor=#222222;gradientDirection=west;" parent="lOCSN8-xL9tDfDZF2J6v-71" vertex="1">
          <mxGeometry x="4" y="18" width="30" height="6" as="geometry" />
        </mxCell>
        <mxCell id="lOCSN8-xL9tDfDZF2J6v-10" value="" style="rounded=0;whiteSpace=wrap;html=1;strokeColor=#111111;fillColor=none;strokeWidth=0.1;movable=1;resizable=1;rotatable=1;deletable=1;editable=1;locked=0;connectable=1;container=0;gradientColor=none;gradientDirection=west;" parent="lOCSN8-xL9tDfDZF2J6v-71" vertex="1">
          <mxGeometry x="6" y="18.5" width="27" height="5" as="geometry" />
        </mxCell>
        <mxCell id="lOCSN8-xL9tDfDZF2J6v-11" value="" style="rounded=0;whiteSpace=wrap;html=1;strokeColor=#111111;fillColor=none;strokeWidth=0.1;movable=1;resizable=1;rotatable=1;deletable=1;editable=1;locked=0;connectable=1;container=0;gradientColor=#222222;gradientDirection=east;" parent="lOCSN8-xL9tDfDZF2J6v-71" vertex="1">
          <mxGeometry x="35" y="18.5" width="28" height="5" as="geometry" />
        </mxCell>
        <mxCell id="lOCSN8-xL9tDfDZF2J6v-45" value="" style="rounded=0;whiteSpace=wrap;html=1;strokeColor=none;fillColor=#570000;strokeWidth=1;movable=1;resizable=1;rotatable=1;deletable=1;editable=1;locked=0;connectable=1;container=0;gradientDirection=east;fontColor=#ffffff;gradientColor=#750000;" parent="lOCSN8-xL9tDfDZF2J6v-71" vertex="1">
          <mxGeometry x="84" y="18" width="14.5" height="6" as="geometry" />
        </mxCell>
        <mxCell id="lOCSN8-xL9tDfDZF2J6v-70" value="" style="shape=or;whiteSpace=wrap;html=1;rounded=0;strokeWidth=1;align=center;verticalAlign=middle;fontFamily=Helvetica;fontSize=12;fontColor=default;resizable=1;fillColor=#222222;gradientColor=none;gradientDirection=east;strokeColor=none;" parent="lOCSN8-xL9tDfDZF2J6v-71" vertex="1">
          <mxGeometry x="84" y="18" width="2" height="6" as="geometry" />
        </mxCell>
        <mxCell id="lOCSN8-xL9tDfDZF2J6v-72" value="" style="group" parent="lOCSN8-xL9tDfDZF2J6v-213" vertex="1" connectable="0">
          <mxGeometry x="111" width="109" height="26" as="geometry" />
        </mxCell>
        <mxCell id="lOCSN8-xL9tDfDZF2J6v-73" value="" style="rounded=0;whiteSpace=wrap;html=1;strokeColor=none;fillColor=#222222;strokeWidth=1;movable=1;resizable=1;rotatable=1;deletable=1;editable=1;locked=0;connectable=1;container=0;" parent="lOCSN8-xL9tDfDZF2J6v-72" vertex="1">
          <mxGeometry width="109" height="26" as="geometry" />
        </mxCell>
        <mxCell id="lOCSN8-xL9tDfDZF2J6v-74" value="" style="rounded=0;whiteSpace=wrap;html=1;strokeColor=none;fillColor=#333333;strokeWidth=1;movable=1;resizable=1;rotatable=1;deletable=1;editable=1;locked=0;connectable=1;container=0;gradientColor=#222222;gradientDirection=east;" parent="lOCSN8-xL9tDfDZF2J6v-72" vertex="1">
          <mxGeometry x="30" width="59" height="26" as="geometry" />
        </mxCell>
        <mxCell id="lOCSN8-xL9tDfDZF2J6v-75" value="" style="rounded=0;whiteSpace=wrap;html=1;strokeColor=none;fillColor=#333333;strokeWidth=1;movable=1;resizable=1;rotatable=1;deletable=1;editable=1;locked=0;connectable=1;container=0;gradientColor=#222222;gradientDirection=west;" parent="lOCSN8-xL9tDfDZF2J6v-72" vertex="1">
          <mxGeometry width="30" height="26" as="geometry" />
        </mxCell>
        <mxCell id="lOCSN8-xL9tDfDZF2J6v-76" value="" style="rounded=0;whiteSpace=wrap;html=1;strokeColor=none;fillColor=#333333;strokeWidth=1;movable=1;resizable=1;rotatable=1;deletable=1;editable=1;locked=0;connectable=1;container=0;gradientColor=#222222;gradientDirection=west;" parent="lOCSN8-xL9tDfDZF2J6v-72" vertex="1">
          <mxGeometry x="89" width="20" height="26" as="geometry" />
        </mxCell>
        <mxCell id="lOCSN8-xL9tDfDZF2J6v-77" value="" style="rounded=1;whiteSpace=wrap;html=1;strokeColor=none;fillColor=#111111;strokeWidth=0.1;movable=1;resizable=1;rotatable=1;deletable=1;editable=1;locked=0;connectable=1;container=0;gradientColor=none;gradientDirection=west;arcSize=32;" parent="lOCSN8-xL9tDfDZF2J6v-72" vertex="1">
          <mxGeometry x="2" y="3" width="5.5" height="5.5" as="geometry" />
        </mxCell>
        <mxCell id="lOCSN8-xL9tDfDZF2J6v-78" value="" style="rounded=1;whiteSpace=wrap;html=1;strokeColor=none;fillColor=#111111;strokeWidth=0.1;movable=1;resizable=1;rotatable=1;deletable=1;editable=1;locked=0;connectable=1;container=0;gradientColor=none;gradientDirection=west;arcSize=32;" parent="lOCSN8-xL9tDfDZF2J6v-72" vertex="1">
          <mxGeometry x="8.5" y="3" width="5.5" height="5.5" as="geometry" />
        </mxCell>
        <mxCell id="lOCSN8-xL9tDfDZF2J6v-79" value="" style="rounded=1;whiteSpace=wrap;html=1;strokeColor=none;fillColor=#111111;strokeWidth=0.1;movable=1;resizable=1;rotatable=1;deletable=1;editable=1;locked=0;connectable=1;container=0;gradientColor=none;gradientDirection=west;arcSize=32;" parent="lOCSN8-xL9tDfDZF2J6v-72" vertex="1">
          <mxGeometry x="15" y="3" width="5.5" height="5.5" as="geometry" />
        </mxCell>
        <mxCell id="lOCSN8-xL9tDfDZF2J6v-80" value="" style="rounded=1;whiteSpace=wrap;html=1;strokeColor=none;fillColor=#111111;strokeWidth=0.1;movable=1;resizable=1;rotatable=1;deletable=1;editable=1;locked=0;connectable=1;container=0;gradientColor=none;gradientDirection=west;arcSize=32;" parent="lOCSN8-xL9tDfDZF2J6v-72" vertex="1">
          <mxGeometry x="21.5" y="3" width="5.5" height="5.5" as="geometry" />
        </mxCell>
        <mxCell id="lOCSN8-xL9tDfDZF2J6v-81" value="" style="rounded=1;whiteSpace=wrap;html=1;strokeColor=none;fillColor=#111111;strokeWidth=0.1;movable=1;resizable=1;rotatable=1;deletable=1;editable=1;locked=0;connectable=1;container=0;gradientColor=none;gradientDirection=west;arcSize=32;" parent="lOCSN8-xL9tDfDZF2J6v-72" vertex="1">
          <mxGeometry x="28" y="3" width="5.5" height="5.5" as="geometry" />
        </mxCell>
        <mxCell id="lOCSN8-xL9tDfDZF2J6v-82" value="" style="rounded=1;whiteSpace=wrap;html=1;strokeColor=none;fillColor=#111111;strokeWidth=0.1;movable=1;resizable=1;rotatable=1;deletable=1;editable=1;locked=0;connectable=1;container=0;gradientColor=none;gradientDirection=west;arcSize=32;" parent="lOCSN8-xL9tDfDZF2J6v-72" vertex="1">
          <mxGeometry x="34.5" y="3" width="5.5" height="5.5" as="geometry" />
        </mxCell>
        <mxCell id="lOCSN8-xL9tDfDZF2J6v-83" value="" style="rounded=1;whiteSpace=wrap;html=1;strokeColor=none;fillColor=#111111;strokeWidth=0.1;movable=1;resizable=1;rotatable=1;deletable=1;editable=1;locked=0;connectable=1;container=0;gradientColor=none;gradientDirection=west;arcSize=32;" parent="lOCSN8-xL9tDfDZF2J6v-72" vertex="1">
          <mxGeometry x="41" y="3" width="5.5" height="5.5" as="geometry" />
        </mxCell>
        <mxCell id="lOCSN8-xL9tDfDZF2J6v-84" value="" style="rounded=1;whiteSpace=wrap;html=1;strokeColor=none;fillColor=#111111;strokeWidth=0.1;movable=1;resizable=1;rotatable=1;deletable=1;editable=1;locked=0;connectable=1;container=0;gradientColor=none;gradientDirection=west;arcSize=32;" parent="lOCSN8-xL9tDfDZF2J6v-72" vertex="1">
          <mxGeometry x="47.5" y="3" width="5.5" height="5.5" as="geometry" />
        </mxCell>
        <mxCell id="lOCSN8-xL9tDfDZF2J6v-85" value="" style="rounded=1;whiteSpace=wrap;html=1;strokeColor=none;fillColor=#111111;strokeWidth=0.1;movable=1;resizable=1;rotatable=1;deletable=1;editable=1;locked=0;connectable=1;container=0;gradientColor=none;gradientDirection=west;arcSize=32;" parent="lOCSN8-xL9tDfDZF2J6v-72" vertex="1">
          <mxGeometry x="54" y="3" width="5.5" height="5.5" as="geometry" />
        </mxCell>
        <mxCell id="lOCSN8-xL9tDfDZF2J6v-86" value="" style="rounded=1;whiteSpace=wrap;html=1;strokeColor=none;fillColor=#111111;strokeWidth=0.1;movable=1;resizable=1;rotatable=1;deletable=1;editable=1;locked=0;connectable=1;container=0;gradientColor=none;gradientDirection=west;arcSize=32;" parent="lOCSN8-xL9tDfDZF2J6v-72" vertex="1">
          <mxGeometry x="60.5" y="3" width="5.5" height="5.5" as="geometry" />
        </mxCell>
        <mxCell id="lOCSN8-xL9tDfDZF2J6v-87" value="" style="rounded=1;whiteSpace=wrap;html=1;strokeColor=none;fillColor=#111111;strokeWidth=0.1;movable=1;resizable=1;rotatable=1;deletable=1;editable=1;locked=0;connectable=1;container=0;gradientColor=none;gradientDirection=west;arcSize=32;" parent="lOCSN8-xL9tDfDZF2J6v-72" vertex="1">
          <mxGeometry x="67" y="3" width="5.5" height="5.5" as="geometry" />
        </mxCell>
        <mxCell id="lOCSN8-xL9tDfDZF2J6v-88" value="" style="rounded=1;whiteSpace=wrap;html=1;strokeColor=none;fillColor=#111111;strokeWidth=0.1;movable=1;resizable=1;rotatable=1;deletable=1;editable=1;locked=0;connectable=1;container=0;gradientColor=none;gradientDirection=west;arcSize=32;" parent="lOCSN8-xL9tDfDZF2J6v-72" vertex="1">
          <mxGeometry x="73.5" y="3" width="5.5" height="5.5" as="geometry" />
        </mxCell>
        <mxCell id="lOCSN8-xL9tDfDZF2J6v-89" value="" style="rounded=1;whiteSpace=wrap;html=1;strokeColor=none;fillColor=#111111;strokeWidth=0.1;movable=1;resizable=1;rotatable=1;deletable=1;editable=1;locked=0;connectable=1;container=0;gradientColor=none;gradientDirection=west;arcSize=32;" parent="lOCSN8-xL9tDfDZF2J6v-72" vertex="1">
          <mxGeometry x="80" y="3" width="5.5" height="5.5" as="geometry" />
        </mxCell>
        <mxCell id="lOCSN8-xL9tDfDZF2J6v-90" value="" style="rounded=1;whiteSpace=wrap;html=1;strokeColor=none;fillColor=#111111;strokeWidth=0.1;movable=1;resizable=1;rotatable=1;deletable=1;editable=1;locked=0;connectable=1;container=0;gradientColor=none;gradientDirection=west;arcSize=32;" parent="lOCSN8-xL9tDfDZF2J6v-72" vertex="1">
          <mxGeometry x="86.5" y="3" width="5.5" height="5.5" as="geometry" />
        </mxCell>
        <mxCell id="lOCSN8-xL9tDfDZF2J6v-91" value="" style="rounded=1;whiteSpace=wrap;html=1;strokeColor=none;fillColor=#111111;strokeWidth=0.1;movable=1;resizable=1;rotatable=1;deletable=1;editable=1;locked=0;connectable=1;container=0;gradientColor=none;gradientDirection=west;arcSize=32;" parent="lOCSN8-xL9tDfDZF2J6v-72" vertex="1">
          <mxGeometry x="93" y="3" width="5.5" height="5.5" as="geometry" />
        </mxCell>
        <mxCell id="lOCSN8-xL9tDfDZF2J6v-92" value="" style="rounded=1;whiteSpace=wrap;html=1;strokeColor=none;fillColor=#111111;strokeWidth=0.1;movable=1;resizable=1;rotatable=1;deletable=1;editable=1;locked=0;connectable=1;container=0;gradientColor=none;gradientDirection=west;arcSize=32;" parent="lOCSN8-xL9tDfDZF2J6v-72" vertex="1">
          <mxGeometry x="2" y="9.5" width="5.5" height="5.5" as="geometry" />
        </mxCell>
        <mxCell id="lOCSN8-xL9tDfDZF2J6v-93" value="" style="rounded=1;whiteSpace=wrap;html=1;strokeColor=none;fillColor=#111111;strokeWidth=0.1;movable=1;resizable=1;rotatable=1;deletable=1;editable=1;locked=0;connectable=1;container=0;gradientColor=none;gradientDirection=west;arcSize=32;" parent="lOCSN8-xL9tDfDZF2J6v-72" vertex="1">
          <mxGeometry x="8.5" y="9.5" width="5.5" height="5.5" as="geometry" />
        </mxCell>
        <mxCell id="lOCSN8-xL9tDfDZF2J6v-94" value="" style="rounded=1;whiteSpace=wrap;html=1;strokeColor=none;fillColor=#111111;strokeWidth=0.1;movable=1;resizable=1;rotatable=1;deletable=1;editable=1;locked=0;connectable=1;container=0;gradientColor=none;gradientDirection=west;arcSize=32;" parent="lOCSN8-xL9tDfDZF2J6v-72" vertex="1">
          <mxGeometry x="15" y="9.5" width="5.5" height="5.5" as="geometry" />
        </mxCell>
        <mxCell id="lOCSN8-xL9tDfDZF2J6v-95" value="" style="rounded=1;whiteSpace=wrap;html=1;strokeColor=none;fillColor=#111111;strokeWidth=0.1;movable=1;resizable=1;rotatable=1;deletable=1;editable=1;locked=0;connectable=1;container=0;gradientColor=none;gradientDirection=west;arcSize=32;" parent="lOCSN8-xL9tDfDZF2J6v-72" vertex="1">
          <mxGeometry x="21.5" y="9.5" width="5.5" height="5.5" as="geometry" />
        </mxCell>
        <mxCell id="lOCSN8-xL9tDfDZF2J6v-96" value="" style="rounded=1;whiteSpace=wrap;html=1;strokeColor=none;fillColor=#111111;strokeWidth=0.1;movable=1;resizable=1;rotatable=1;deletable=1;editable=1;locked=0;connectable=1;container=0;gradientColor=none;gradientDirection=west;arcSize=32;" parent="lOCSN8-xL9tDfDZF2J6v-72" vertex="1">
          <mxGeometry x="28" y="9.5" width="5.5" height="5.5" as="geometry" />
        </mxCell>
        <mxCell id="lOCSN8-xL9tDfDZF2J6v-97" value="" style="rounded=1;whiteSpace=wrap;html=1;strokeColor=none;fillColor=#111111;strokeWidth=0.1;movable=1;resizable=1;rotatable=1;deletable=1;editable=1;locked=0;connectable=1;container=0;gradientColor=none;gradientDirection=west;arcSize=32;" parent="lOCSN8-xL9tDfDZF2J6v-72" vertex="1">
          <mxGeometry x="34.5" y="9.5" width="5.5" height="5.5" as="geometry" />
        </mxCell>
        <mxCell id="lOCSN8-xL9tDfDZF2J6v-98" value="" style="rounded=1;whiteSpace=wrap;html=1;strokeColor=none;fillColor=#111111;strokeWidth=0.1;movable=1;resizable=1;rotatable=1;deletable=1;editable=1;locked=0;connectable=1;container=0;gradientColor=none;gradientDirection=west;arcSize=32;" parent="lOCSN8-xL9tDfDZF2J6v-72" vertex="1">
          <mxGeometry x="41" y="9.5" width="5.5" height="5.5" as="geometry" />
        </mxCell>
        <mxCell id="lOCSN8-xL9tDfDZF2J6v-99" value="" style="rounded=1;whiteSpace=wrap;html=1;strokeColor=none;fillColor=#111111;strokeWidth=0.1;movable=1;resizable=1;rotatable=1;deletable=1;editable=1;locked=0;connectable=1;container=0;gradientColor=none;gradientDirection=west;arcSize=32;" parent="lOCSN8-xL9tDfDZF2J6v-72" vertex="1">
          <mxGeometry x="47.5" y="9.5" width="5.5" height="5.5" as="geometry" />
        </mxCell>
        <mxCell id="lOCSN8-xL9tDfDZF2J6v-100" value="" style="rounded=1;whiteSpace=wrap;html=1;strokeColor=none;fillColor=#111111;strokeWidth=0.1;movable=1;resizable=1;rotatable=1;deletable=1;editable=1;locked=0;connectable=1;container=0;gradientColor=none;gradientDirection=west;arcSize=32;" parent="lOCSN8-xL9tDfDZF2J6v-72" vertex="1">
          <mxGeometry x="54" y="9.5" width="5.5" height="5.5" as="geometry" />
        </mxCell>
        <mxCell id="lOCSN8-xL9tDfDZF2J6v-101" value="" style="rounded=1;whiteSpace=wrap;html=1;strokeColor=none;fillColor=#111111;strokeWidth=0.1;movable=1;resizable=1;rotatable=1;deletable=1;editable=1;locked=0;connectable=1;container=0;gradientColor=none;gradientDirection=west;arcSize=32;" parent="lOCSN8-xL9tDfDZF2J6v-72" vertex="1">
          <mxGeometry x="60.5" y="9.5" width="5.5" height="5.5" as="geometry" />
        </mxCell>
        <mxCell id="lOCSN8-xL9tDfDZF2J6v-102" value="" style="rounded=1;whiteSpace=wrap;html=1;strokeColor=none;fillColor=#111111;strokeWidth=0.1;movable=1;resizable=1;rotatable=1;deletable=1;editable=1;locked=0;connectable=1;container=0;gradientColor=none;gradientDirection=west;arcSize=32;" parent="lOCSN8-xL9tDfDZF2J6v-72" vertex="1">
          <mxGeometry x="67" y="9.5" width="5.5" height="5.5" as="geometry" />
        </mxCell>
        <mxCell id="lOCSN8-xL9tDfDZF2J6v-103" value="" style="rounded=1;whiteSpace=wrap;html=1;strokeColor=none;fillColor=#111111;strokeWidth=0.1;movable=1;resizable=1;rotatable=1;deletable=1;editable=1;locked=0;connectable=1;container=0;gradientColor=none;gradientDirection=west;arcSize=32;" parent="lOCSN8-xL9tDfDZF2J6v-72" vertex="1">
          <mxGeometry x="73.5" y="9.5" width="5.5" height="5.5" as="geometry" />
        </mxCell>
        <mxCell id="lOCSN8-xL9tDfDZF2J6v-104" value="" style="rounded=1;whiteSpace=wrap;html=1;strokeColor=none;fillColor=#111111;strokeWidth=0.1;movable=1;resizable=1;rotatable=1;deletable=1;editable=1;locked=0;connectable=1;container=0;gradientColor=none;gradientDirection=west;arcSize=32;" parent="lOCSN8-xL9tDfDZF2J6v-72" vertex="1">
          <mxGeometry x="80" y="9.5" width="5.5" height="5.5" as="geometry" />
        </mxCell>
        <mxCell id="lOCSN8-xL9tDfDZF2J6v-105" value="" style="rounded=1;whiteSpace=wrap;html=1;strokeColor=none;fillColor=#111111;strokeWidth=0.1;movable=1;resizable=1;rotatable=1;deletable=1;editable=1;locked=0;connectable=1;container=0;gradientColor=none;gradientDirection=west;arcSize=32;" parent="lOCSN8-xL9tDfDZF2J6v-72" vertex="1">
          <mxGeometry x="86.5" y="9.5" width="5.5" height="5.5" as="geometry" />
        </mxCell>
        <mxCell id="lOCSN8-xL9tDfDZF2J6v-106" value="" style="rounded=1;whiteSpace=wrap;html=1;strokeColor=none;fillColor=#111111;strokeWidth=0.1;movable=1;resizable=1;rotatable=1;deletable=1;editable=1;locked=0;connectable=1;container=0;gradientColor=none;gradientDirection=west;arcSize=32;" parent="lOCSN8-xL9tDfDZF2J6v-72" vertex="1">
          <mxGeometry x="93" y="9.5" width="5.5" height="5.5" as="geometry" />
        </mxCell>
        <mxCell id="lOCSN8-xL9tDfDZF2J6v-107" value="" style="rounded=1;whiteSpace=wrap;html=1;strokeColor=#111111;fillColor=#008a00;fontColor=#ffffff;container=0;arcSize=50;strokeWidth=0.3;" parent="lOCSN8-xL9tDfDZF2J6v-72" vertex="1">
          <mxGeometry x="104" y="5" width="4" height="4" as="geometry" />
        </mxCell>
        <mxCell id="lOCSN8-xL9tDfDZF2J6v-108" value="" style="rounded=1;whiteSpace=wrap;html=1;strokeColor=#111111;fillColor=#750000;fontColor=#ffffff;container=0;arcSize=50;strokeWidth=0.3;" parent="lOCSN8-xL9tDfDZF2J6v-72" vertex="1">
          <mxGeometry x="104" y="10" width="4" height="4" as="geometry" />
        </mxCell>
        <mxCell id="lOCSN8-xL9tDfDZF2J6v-109" value="" style="strokeWidth=0.1;html=1;shape=mxgraph.flowchart.database;whiteSpace=wrap;strokeColor=#010101;fillColor=none;movable=1;resizable=1;rotatable=1;deletable=1;editable=1;locked=0;connectable=1;container=0;" parent="lOCSN8-xL9tDfDZF2J6v-72" vertex="1">
          <mxGeometry x="100" y="5.5" width="3" height="3" as="geometry" />
        </mxCell>
        <mxCell id="lOCSN8-xL9tDfDZF2J6v-110" value="" style="strokeWidth=0.1;html=1;shape=mxgraph.flowchart.database;whiteSpace=wrap;strokeColor=#010101;fillColor=none;movable=1;resizable=1;rotatable=1;deletable=1;editable=1;locked=0;connectable=1;container=0;" parent="lOCSN8-xL9tDfDZF2J6v-72" vertex="1">
          <mxGeometry x="100" y="10.5" width="3" height="3" as="geometry" />
        </mxCell>
        <mxCell id="lOCSN8-xL9tDfDZF2J6v-111" value="" style="shape=mxgraph.sysml.x;strokeWidth=0.1;strokeColor=#010101;container=0;" parent="lOCSN8-xL9tDfDZF2J6v-72" vertex="1">
          <mxGeometry x="100" y="10.5" width="3" height="3" as="geometry" />
        </mxCell>
        <mxCell id="lOCSN8-xL9tDfDZF2J6v-112" value="" style="rounded=0;whiteSpace=wrap;html=1;strokeColor=none;fillColor=#111111;strokeWidth=0.1;movable=1;resizable=1;rotatable=1;deletable=1;editable=1;locked=0;connectable=1;container=0;gradientColor=none;gradientDirection=west;" parent="lOCSN8-xL9tDfDZF2J6v-72" vertex="1">
          <mxGeometry y="17" width="109" height="8" as="geometry" />
        </mxCell>
        <mxCell id="lOCSN8-xL9tDfDZF2J6v-113" value="" style="rounded=0;whiteSpace=wrap;html=1;strokeColor=none;fillColor=#333333;strokeWidth=1;movable=1;resizable=1;rotatable=1;deletable=1;editable=1;locked=0;connectable=1;container=0;gradientColor=#222222;gradientDirection=east;" parent="lOCSN8-xL9tDfDZF2J6v-72" vertex="1">
          <mxGeometry x="34" y="18" width="50" height="6" as="geometry" />
        </mxCell>
        <mxCell id="lOCSN8-xL9tDfDZF2J6v-114" value="" style="rounded=0;whiteSpace=wrap;html=1;strokeColor=none;fillColor=#333333;strokeWidth=1;movable=1;resizable=1;rotatable=1;deletable=1;editable=1;locked=0;connectable=1;container=0;gradientColor=#222222;gradientDirection=west;" parent="lOCSN8-xL9tDfDZF2J6v-72" vertex="1">
          <mxGeometry x="4" y="18" width="30" height="6" as="geometry" />
        </mxCell>
        <mxCell id="lOCSN8-xL9tDfDZF2J6v-115" value="" style="rounded=0;whiteSpace=wrap;html=1;strokeColor=#111111;fillColor=none;strokeWidth=0.1;movable=1;resizable=1;rotatable=1;deletable=1;editable=1;locked=0;connectable=1;container=0;gradientColor=none;gradientDirection=west;" parent="lOCSN8-xL9tDfDZF2J6v-72" vertex="1">
          <mxGeometry x="6" y="18.5" width="27" height="5" as="geometry" />
        </mxCell>
        <mxCell id="lOCSN8-xL9tDfDZF2J6v-116" value="" style="rounded=0;whiteSpace=wrap;html=1;strokeColor=#111111;fillColor=none;strokeWidth=0.1;movable=1;resizable=1;rotatable=1;deletable=1;editable=1;locked=0;connectable=1;container=0;gradientColor=#222222;gradientDirection=east;" parent="lOCSN8-xL9tDfDZF2J6v-72" vertex="1">
          <mxGeometry x="35" y="18.5" width="28" height="5" as="geometry" />
        </mxCell>
        <mxCell id="lOCSN8-xL9tDfDZF2J6v-117" value="" style="rounded=0;whiteSpace=wrap;html=1;strokeColor=none;fillColor=#570000;strokeWidth=1;movable=1;resizable=1;rotatable=1;deletable=1;editable=1;locked=0;connectable=1;container=0;gradientDirection=east;fontColor=#ffffff;gradientColor=#750000;" parent="lOCSN8-xL9tDfDZF2J6v-72" vertex="1">
          <mxGeometry x="84" y="18" width="14.5" height="6" as="geometry" />
        </mxCell>
        <mxCell id="lOCSN8-xL9tDfDZF2J6v-118" value="" style="shape=or;whiteSpace=wrap;html=1;rounded=0;strokeWidth=1;align=center;verticalAlign=middle;fontFamily=Helvetica;fontSize=12;fontColor=default;resizable=1;fillColor=#222222;gradientColor=none;gradientDirection=east;strokeColor=none;" parent="lOCSN8-xL9tDfDZF2J6v-72" vertex="1">
          <mxGeometry x="84" y="18" width="2" height="6" as="geometry" />
        </mxCell>
        <mxCell id="lOCSN8-xL9tDfDZF2J6v-119" value="" style="group" parent="lOCSN8-xL9tDfDZF2J6v-213" vertex="1" connectable="0">
          <mxGeometry x="222" width="109" height="26" as="geometry" />
        </mxCell>
        <mxCell id="lOCSN8-xL9tDfDZF2J6v-120" value="" style="rounded=0;whiteSpace=wrap;html=1;strokeColor=none;fillColor=#222222;strokeWidth=1;movable=1;resizable=1;rotatable=1;deletable=1;editable=1;locked=0;connectable=1;container=0;" parent="lOCSN8-xL9tDfDZF2J6v-119" vertex="1">
          <mxGeometry width="109" height="26" as="geometry" />
        </mxCell>
        <mxCell id="lOCSN8-xL9tDfDZF2J6v-121" value="" style="rounded=0;whiteSpace=wrap;html=1;strokeColor=none;fillColor=#333333;strokeWidth=1;movable=1;resizable=1;rotatable=1;deletable=1;editable=1;locked=0;connectable=1;container=0;gradientColor=#222222;gradientDirection=east;" parent="lOCSN8-xL9tDfDZF2J6v-119" vertex="1">
          <mxGeometry x="30" width="59" height="26" as="geometry" />
        </mxCell>
        <mxCell id="lOCSN8-xL9tDfDZF2J6v-122" value="" style="rounded=0;whiteSpace=wrap;html=1;strokeColor=none;fillColor=#333333;strokeWidth=1;movable=1;resizable=1;rotatable=1;deletable=1;editable=1;locked=0;connectable=1;container=0;gradientColor=#222222;gradientDirection=west;" parent="lOCSN8-xL9tDfDZF2J6v-119" vertex="1">
          <mxGeometry width="30" height="26" as="geometry" />
        </mxCell>
        <mxCell id="lOCSN8-xL9tDfDZF2J6v-123" value="" style="rounded=0;whiteSpace=wrap;html=1;strokeColor=none;fillColor=#333333;strokeWidth=1;movable=1;resizable=1;rotatable=1;deletable=1;editable=1;locked=0;connectable=1;container=0;gradientColor=#222222;gradientDirection=west;" parent="lOCSN8-xL9tDfDZF2J6v-119" vertex="1">
          <mxGeometry x="89" width="20" height="26" as="geometry" />
        </mxCell>
        <mxCell id="lOCSN8-xL9tDfDZF2J6v-124" value="" style="rounded=1;whiteSpace=wrap;html=1;strokeColor=none;fillColor=#111111;strokeWidth=0.1;movable=1;resizable=1;rotatable=1;deletable=1;editable=1;locked=0;connectable=1;container=0;gradientColor=none;gradientDirection=west;arcSize=32;" parent="lOCSN8-xL9tDfDZF2J6v-119" vertex="1">
          <mxGeometry x="2" y="3" width="5.5" height="5.5" as="geometry" />
        </mxCell>
        <mxCell id="lOCSN8-xL9tDfDZF2J6v-125" value="" style="rounded=1;whiteSpace=wrap;html=1;strokeColor=none;fillColor=#111111;strokeWidth=0.1;movable=1;resizable=1;rotatable=1;deletable=1;editable=1;locked=0;connectable=1;container=0;gradientColor=none;gradientDirection=west;arcSize=32;" parent="lOCSN8-xL9tDfDZF2J6v-119" vertex="1">
          <mxGeometry x="8.5" y="3" width="5.5" height="5.5" as="geometry" />
        </mxCell>
        <mxCell id="lOCSN8-xL9tDfDZF2J6v-126" value="" style="rounded=1;whiteSpace=wrap;html=1;strokeColor=none;fillColor=#111111;strokeWidth=0.1;movable=1;resizable=1;rotatable=1;deletable=1;editable=1;locked=0;connectable=1;container=0;gradientColor=none;gradientDirection=west;arcSize=32;" parent="lOCSN8-xL9tDfDZF2J6v-119" vertex="1">
          <mxGeometry x="15" y="3" width="5.5" height="5.5" as="geometry" />
        </mxCell>
        <mxCell id="lOCSN8-xL9tDfDZF2J6v-127" value="" style="rounded=1;whiteSpace=wrap;html=1;strokeColor=none;fillColor=#111111;strokeWidth=0.1;movable=1;resizable=1;rotatable=1;deletable=1;editable=1;locked=0;connectable=1;container=0;gradientColor=none;gradientDirection=west;arcSize=32;" parent="lOCSN8-xL9tDfDZF2J6v-119" vertex="1">
          <mxGeometry x="21.5" y="3" width="5.5" height="5.5" as="geometry" />
        </mxCell>
        <mxCell id="lOCSN8-xL9tDfDZF2J6v-128" value="" style="rounded=1;whiteSpace=wrap;html=1;strokeColor=none;fillColor=#111111;strokeWidth=0.1;movable=1;resizable=1;rotatable=1;deletable=1;editable=1;locked=0;connectable=1;container=0;gradientColor=none;gradientDirection=west;arcSize=32;" parent="lOCSN8-xL9tDfDZF2J6v-119" vertex="1">
          <mxGeometry x="28" y="3" width="5.5" height="5.5" as="geometry" />
        </mxCell>
        <mxCell id="lOCSN8-xL9tDfDZF2J6v-129" value="" style="rounded=1;whiteSpace=wrap;html=1;strokeColor=none;fillColor=#111111;strokeWidth=0.1;movable=1;resizable=1;rotatable=1;deletable=1;editable=1;locked=0;connectable=1;container=0;gradientColor=none;gradientDirection=west;arcSize=32;" parent="lOCSN8-xL9tDfDZF2J6v-119" vertex="1">
          <mxGeometry x="34.5" y="3" width="5.5" height="5.5" as="geometry" />
        </mxCell>
        <mxCell id="lOCSN8-xL9tDfDZF2J6v-130" value="" style="rounded=1;whiteSpace=wrap;html=1;strokeColor=none;fillColor=#111111;strokeWidth=0.1;movable=1;resizable=1;rotatable=1;deletable=1;editable=1;locked=0;connectable=1;container=0;gradientColor=none;gradientDirection=west;arcSize=32;" parent="lOCSN8-xL9tDfDZF2J6v-119" vertex="1">
          <mxGeometry x="41" y="3" width="5.5" height="5.5" as="geometry" />
        </mxCell>
        <mxCell id="lOCSN8-xL9tDfDZF2J6v-131" value="" style="rounded=1;whiteSpace=wrap;html=1;strokeColor=none;fillColor=#111111;strokeWidth=0.1;movable=1;resizable=1;rotatable=1;deletable=1;editable=1;locked=0;connectable=1;container=0;gradientColor=none;gradientDirection=west;arcSize=32;" parent="lOCSN8-xL9tDfDZF2J6v-119" vertex="1">
          <mxGeometry x="47.5" y="3" width="5.5" height="5.5" as="geometry" />
        </mxCell>
        <mxCell id="lOCSN8-xL9tDfDZF2J6v-132" value="" style="rounded=1;whiteSpace=wrap;html=1;strokeColor=none;fillColor=#111111;strokeWidth=0.1;movable=1;resizable=1;rotatable=1;deletable=1;editable=1;locked=0;connectable=1;container=0;gradientColor=none;gradientDirection=west;arcSize=32;" parent="lOCSN8-xL9tDfDZF2J6v-119" vertex="1">
          <mxGeometry x="54" y="3" width="5.5" height="5.5" as="geometry" />
        </mxCell>
        <mxCell id="lOCSN8-xL9tDfDZF2J6v-133" value="" style="rounded=1;whiteSpace=wrap;html=1;strokeColor=none;fillColor=#111111;strokeWidth=0.1;movable=1;resizable=1;rotatable=1;deletable=1;editable=1;locked=0;connectable=1;container=0;gradientColor=none;gradientDirection=west;arcSize=32;" parent="lOCSN8-xL9tDfDZF2J6v-119" vertex="1">
          <mxGeometry x="60.5" y="3" width="5.5" height="5.5" as="geometry" />
        </mxCell>
        <mxCell id="lOCSN8-xL9tDfDZF2J6v-134" value="" style="rounded=1;whiteSpace=wrap;html=1;strokeColor=none;fillColor=#111111;strokeWidth=0.1;movable=1;resizable=1;rotatable=1;deletable=1;editable=1;locked=0;connectable=1;container=0;gradientColor=none;gradientDirection=west;arcSize=32;" parent="lOCSN8-xL9tDfDZF2J6v-119" vertex="1">
          <mxGeometry x="67" y="3" width="5.5" height="5.5" as="geometry" />
        </mxCell>
        <mxCell id="lOCSN8-xL9tDfDZF2J6v-135" value="" style="rounded=1;whiteSpace=wrap;html=1;strokeColor=none;fillColor=#111111;strokeWidth=0.1;movable=1;resizable=1;rotatable=1;deletable=1;editable=1;locked=0;connectable=1;container=0;gradientColor=none;gradientDirection=west;arcSize=32;" parent="lOCSN8-xL9tDfDZF2J6v-119" vertex="1">
          <mxGeometry x="73.5" y="3" width="5.5" height="5.5" as="geometry" />
        </mxCell>
        <mxCell id="lOCSN8-xL9tDfDZF2J6v-136" value="" style="rounded=1;whiteSpace=wrap;html=1;strokeColor=none;fillColor=#111111;strokeWidth=0.1;movable=1;resizable=1;rotatable=1;deletable=1;editable=1;locked=0;connectable=1;container=0;gradientColor=none;gradientDirection=west;arcSize=32;" parent="lOCSN8-xL9tDfDZF2J6v-119" vertex="1">
          <mxGeometry x="80" y="3" width="5.5" height="5.5" as="geometry" />
        </mxCell>
        <mxCell id="lOCSN8-xL9tDfDZF2J6v-137" value="" style="rounded=1;whiteSpace=wrap;html=1;strokeColor=none;fillColor=#111111;strokeWidth=0.1;movable=1;resizable=1;rotatable=1;deletable=1;editable=1;locked=0;connectable=1;container=0;gradientColor=none;gradientDirection=west;arcSize=32;" parent="lOCSN8-xL9tDfDZF2J6v-119" vertex="1">
          <mxGeometry x="86.5" y="3" width="5.5" height="5.5" as="geometry" />
        </mxCell>
        <mxCell id="lOCSN8-xL9tDfDZF2J6v-138" value="" style="rounded=1;whiteSpace=wrap;html=1;strokeColor=none;fillColor=#111111;strokeWidth=0.1;movable=1;resizable=1;rotatable=1;deletable=1;editable=1;locked=0;connectable=1;container=0;gradientColor=none;gradientDirection=west;arcSize=32;" parent="lOCSN8-xL9tDfDZF2J6v-119" vertex="1">
          <mxGeometry x="93" y="3" width="5.5" height="5.5" as="geometry" />
        </mxCell>
        <mxCell id="lOCSN8-xL9tDfDZF2J6v-139" value="" style="rounded=1;whiteSpace=wrap;html=1;strokeColor=none;fillColor=#111111;strokeWidth=0.1;movable=1;resizable=1;rotatable=1;deletable=1;editable=1;locked=0;connectable=1;container=0;gradientColor=none;gradientDirection=west;arcSize=32;" parent="lOCSN8-xL9tDfDZF2J6v-119" vertex="1">
          <mxGeometry x="2" y="9.5" width="5.5" height="5.5" as="geometry" />
        </mxCell>
        <mxCell id="lOCSN8-xL9tDfDZF2J6v-140" value="" style="rounded=1;whiteSpace=wrap;html=1;strokeColor=none;fillColor=#111111;strokeWidth=0.1;movable=1;resizable=1;rotatable=1;deletable=1;editable=1;locked=0;connectable=1;container=0;gradientColor=none;gradientDirection=west;arcSize=32;" parent="lOCSN8-xL9tDfDZF2J6v-119" vertex="1">
          <mxGeometry x="8.5" y="9.5" width="5.5" height="5.5" as="geometry" />
        </mxCell>
        <mxCell id="lOCSN8-xL9tDfDZF2J6v-141" value="" style="rounded=1;whiteSpace=wrap;html=1;strokeColor=none;fillColor=#111111;strokeWidth=0.1;movable=1;resizable=1;rotatable=1;deletable=1;editable=1;locked=0;connectable=1;container=0;gradientColor=none;gradientDirection=west;arcSize=32;" parent="lOCSN8-xL9tDfDZF2J6v-119" vertex="1">
          <mxGeometry x="15" y="9.5" width="5.5" height="5.5" as="geometry" />
        </mxCell>
        <mxCell id="lOCSN8-xL9tDfDZF2J6v-142" value="" style="rounded=1;whiteSpace=wrap;html=1;strokeColor=none;fillColor=#111111;strokeWidth=0.1;movable=1;resizable=1;rotatable=1;deletable=1;editable=1;locked=0;connectable=1;container=0;gradientColor=none;gradientDirection=west;arcSize=32;" parent="lOCSN8-xL9tDfDZF2J6v-119" vertex="1">
          <mxGeometry x="21.5" y="9.5" width="5.5" height="5.5" as="geometry" />
        </mxCell>
        <mxCell id="lOCSN8-xL9tDfDZF2J6v-143" value="" style="rounded=1;whiteSpace=wrap;html=1;strokeColor=none;fillColor=#111111;strokeWidth=0.1;movable=1;resizable=1;rotatable=1;deletable=1;editable=1;locked=0;connectable=1;container=0;gradientColor=none;gradientDirection=west;arcSize=32;" parent="lOCSN8-xL9tDfDZF2J6v-119" vertex="1">
          <mxGeometry x="28" y="9.5" width="5.5" height="5.5" as="geometry" />
        </mxCell>
        <mxCell id="lOCSN8-xL9tDfDZF2J6v-144" value="" style="rounded=1;whiteSpace=wrap;html=1;strokeColor=none;fillColor=#111111;strokeWidth=0.1;movable=1;resizable=1;rotatable=1;deletable=1;editable=1;locked=0;connectable=1;container=0;gradientColor=none;gradientDirection=west;arcSize=32;" parent="lOCSN8-xL9tDfDZF2J6v-119" vertex="1">
          <mxGeometry x="34.5" y="9.5" width="5.5" height="5.5" as="geometry" />
        </mxCell>
        <mxCell id="lOCSN8-xL9tDfDZF2J6v-145" value="" style="rounded=1;whiteSpace=wrap;html=1;strokeColor=none;fillColor=#111111;strokeWidth=0.1;movable=1;resizable=1;rotatable=1;deletable=1;editable=1;locked=0;connectable=1;container=0;gradientColor=none;gradientDirection=west;arcSize=32;" parent="lOCSN8-xL9tDfDZF2J6v-119" vertex="1">
          <mxGeometry x="41" y="9.5" width="5.5" height="5.5" as="geometry" />
        </mxCell>
        <mxCell id="lOCSN8-xL9tDfDZF2J6v-146" value="" style="rounded=1;whiteSpace=wrap;html=1;strokeColor=none;fillColor=#111111;strokeWidth=0.1;movable=1;resizable=1;rotatable=1;deletable=1;editable=1;locked=0;connectable=1;container=0;gradientColor=none;gradientDirection=west;arcSize=32;" parent="lOCSN8-xL9tDfDZF2J6v-119" vertex="1">
          <mxGeometry x="47.5" y="9.5" width="5.5" height="5.5" as="geometry" />
        </mxCell>
        <mxCell id="lOCSN8-xL9tDfDZF2J6v-147" value="" style="rounded=1;whiteSpace=wrap;html=1;strokeColor=none;fillColor=#111111;strokeWidth=0.1;movable=1;resizable=1;rotatable=1;deletable=1;editable=1;locked=0;connectable=1;container=0;gradientColor=none;gradientDirection=west;arcSize=32;" parent="lOCSN8-xL9tDfDZF2J6v-119" vertex="1">
          <mxGeometry x="54" y="9.5" width="5.5" height="5.5" as="geometry" />
        </mxCell>
        <mxCell id="lOCSN8-xL9tDfDZF2J6v-148" value="" style="rounded=1;whiteSpace=wrap;html=1;strokeColor=none;fillColor=#111111;strokeWidth=0.1;movable=1;resizable=1;rotatable=1;deletable=1;editable=1;locked=0;connectable=1;container=0;gradientColor=none;gradientDirection=west;arcSize=32;" parent="lOCSN8-xL9tDfDZF2J6v-119" vertex="1">
          <mxGeometry x="60.5" y="9.5" width="5.5" height="5.5" as="geometry" />
        </mxCell>
        <mxCell id="lOCSN8-xL9tDfDZF2J6v-149" value="" style="rounded=1;whiteSpace=wrap;html=1;strokeColor=none;fillColor=#111111;strokeWidth=0.1;movable=1;resizable=1;rotatable=1;deletable=1;editable=1;locked=0;connectable=1;container=0;gradientColor=none;gradientDirection=west;arcSize=32;" parent="lOCSN8-xL9tDfDZF2J6v-119" vertex="1">
          <mxGeometry x="67" y="9.5" width="5.5" height="5.5" as="geometry" />
        </mxCell>
        <mxCell id="lOCSN8-xL9tDfDZF2J6v-150" value="" style="rounded=1;whiteSpace=wrap;html=1;strokeColor=none;fillColor=#111111;strokeWidth=0.1;movable=1;resizable=1;rotatable=1;deletable=1;editable=1;locked=0;connectable=1;container=0;gradientColor=none;gradientDirection=west;arcSize=32;" parent="lOCSN8-xL9tDfDZF2J6v-119" vertex="1">
          <mxGeometry x="73.5" y="9.5" width="5.5" height="5.5" as="geometry" />
        </mxCell>
        <mxCell id="lOCSN8-xL9tDfDZF2J6v-151" value="" style="rounded=1;whiteSpace=wrap;html=1;strokeColor=none;fillColor=#111111;strokeWidth=0.1;movable=1;resizable=1;rotatable=1;deletable=1;editable=1;locked=0;connectable=1;container=0;gradientColor=none;gradientDirection=west;arcSize=32;" parent="lOCSN8-xL9tDfDZF2J6v-119" vertex="1">
          <mxGeometry x="80" y="9.5" width="5.5" height="5.5" as="geometry" />
        </mxCell>
        <mxCell id="lOCSN8-xL9tDfDZF2J6v-152" value="" style="rounded=1;whiteSpace=wrap;html=1;strokeColor=none;fillColor=#111111;strokeWidth=0.1;movable=1;resizable=1;rotatable=1;deletable=1;editable=1;locked=0;connectable=1;container=0;gradientColor=none;gradientDirection=west;arcSize=32;" parent="lOCSN8-xL9tDfDZF2J6v-119" vertex="1">
          <mxGeometry x="86.5" y="9.5" width="5.5" height="5.5" as="geometry" />
        </mxCell>
        <mxCell id="lOCSN8-xL9tDfDZF2J6v-153" value="" style="rounded=1;whiteSpace=wrap;html=1;strokeColor=none;fillColor=#111111;strokeWidth=0.1;movable=1;resizable=1;rotatable=1;deletable=1;editable=1;locked=0;connectable=1;container=0;gradientColor=none;gradientDirection=west;arcSize=32;" parent="lOCSN8-xL9tDfDZF2J6v-119" vertex="1">
          <mxGeometry x="93" y="9.5" width="5.5" height="5.5" as="geometry" />
        </mxCell>
        <mxCell id="lOCSN8-xL9tDfDZF2J6v-154" value="" style="rounded=1;whiteSpace=wrap;html=1;strokeColor=#111111;fillColor=#008a00;fontColor=#ffffff;container=0;arcSize=50;strokeWidth=0.3;" parent="lOCSN8-xL9tDfDZF2J6v-119" vertex="1">
          <mxGeometry x="104" y="5" width="4" height="4" as="geometry" />
        </mxCell>
        <mxCell id="lOCSN8-xL9tDfDZF2J6v-155" value="" style="rounded=1;whiteSpace=wrap;html=1;strokeColor=#111111;fillColor=#750000;fontColor=#ffffff;container=0;arcSize=50;strokeWidth=0.3;" parent="lOCSN8-xL9tDfDZF2J6v-119" vertex="1">
          <mxGeometry x="104" y="10" width="4" height="4" as="geometry" />
        </mxCell>
        <mxCell id="lOCSN8-xL9tDfDZF2J6v-156" value="" style="strokeWidth=0.1;html=1;shape=mxgraph.flowchart.database;whiteSpace=wrap;strokeColor=#010101;fillColor=none;movable=1;resizable=1;rotatable=1;deletable=1;editable=1;locked=0;connectable=1;container=0;" parent="lOCSN8-xL9tDfDZF2J6v-119" vertex="1">
          <mxGeometry x="100" y="5.5" width="3" height="3" as="geometry" />
        </mxCell>
        <mxCell id="lOCSN8-xL9tDfDZF2J6v-157" value="" style="strokeWidth=0.1;html=1;shape=mxgraph.flowchart.database;whiteSpace=wrap;strokeColor=#010101;fillColor=none;movable=1;resizable=1;rotatable=1;deletable=1;editable=1;locked=0;connectable=1;container=0;" parent="lOCSN8-xL9tDfDZF2J6v-119" vertex="1">
          <mxGeometry x="100" y="10.5" width="3" height="3" as="geometry" />
        </mxCell>
        <mxCell id="lOCSN8-xL9tDfDZF2J6v-158" value="" style="shape=mxgraph.sysml.x;strokeWidth=0.1;strokeColor=#010101;container=0;" parent="lOCSN8-xL9tDfDZF2J6v-119" vertex="1">
          <mxGeometry x="100" y="10.5" width="3" height="3" as="geometry" />
        </mxCell>
        <mxCell id="lOCSN8-xL9tDfDZF2J6v-159" value="" style="rounded=0;whiteSpace=wrap;html=1;strokeColor=none;fillColor=#111111;strokeWidth=0.1;movable=1;resizable=1;rotatable=1;deletable=1;editable=1;locked=0;connectable=1;container=0;gradientColor=none;gradientDirection=west;" parent="lOCSN8-xL9tDfDZF2J6v-119" vertex="1">
          <mxGeometry y="17" width="109" height="8" as="geometry" />
        </mxCell>
        <mxCell id="lOCSN8-xL9tDfDZF2J6v-160" value="" style="rounded=0;whiteSpace=wrap;html=1;strokeColor=none;fillColor=#333333;strokeWidth=1;movable=1;resizable=1;rotatable=1;deletable=1;editable=1;locked=0;connectable=1;container=0;gradientColor=#222222;gradientDirection=east;" parent="lOCSN8-xL9tDfDZF2J6v-119" vertex="1">
          <mxGeometry x="34" y="18" width="50" height="6" as="geometry" />
        </mxCell>
        <mxCell id="lOCSN8-xL9tDfDZF2J6v-161" value="" style="rounded=0;whiteSpace=wrap;html=1;strokeColor=none;fillColor=#333333;strokeWidth=1;movable=1;resizable=1;rotatable=1;deletable=1;editable=1;locked=0;connectable=1;container=0;gradientColor=#222222;gradientDirection=west;" parent="lOCSN8-xL9tDfDZF2J6v-119" vertex="1">
          <mxGeometry x="4" y="18" width="30" height="6" as="geometry" />
        </mxCell>
        <mxCell id="lOCSN8-xL9tDfDZF2J6v-162" value="" style="rounded=0;whiteSpace=wrap;html=1;strokeColor=#111111;fillColor=none;strokeWidth=0.1;movable=1;resizable=1;rotatable=1;deletable=1;editable=1;locked=0;connectable=1;container=0;gradientColor=none;gradientDirection=west;" parent="lOCSN8-xL9tDfDZF2J6v-119" vertex="1">
          <mxGeometry x="6" y="18.5" width="27" height="5" as="geometry" />
        </mxCell>
        <mxCell id="lOCSN8-xL9tDfDZF2J6v-163" value="" style="rounded=0;whiteSpace=wrap;html=1;strokeColor=#111111;fillColor=none;strokeWidth=0.1;movable=1;resizable=1;rotatable=1;deletable=1;editable=1;locked=0;connectable=1;container=0;gradientColor=#222222;gradientDirection=east;" parent="lOCSN8-xL9tDfDZF2J6v-119" vertex="1">
          <mxGeometry x="35" y="18.5" width="28" height="5" as="geometry" />
        </mxCell>
        <mxCell id="lOCSN8-xL9tDfDZF2J6v-164" value="" style="rounded=0;whiteSpace=wrap;html=1;strokeColor=none;fillColor=#570000;strokeWidth=1;movable=1;resizable=1;rotatable=1;deletable=1;editable=1;locked=0;connectable=1;container=0;gradientDirection=east;fontColor=#ffffff;gradientColor=#750000;" parent="lOCSN8-xL9tDfDZF2J6v-119" vertex="1">
          <mxGeometry x="84" y="18" width="14.5" height="6" as="geometry" />
        </mxCell>
        <mxCell id="lOCSN8-xL9tDfDZF2J6v-165" value="" style="shape=or;whiteSpace=wrap;html=1;rounded=0;strokeWidth=1;align=center;verticalAlign=middle;fontFamily=Helvetica;fontSize=12;fontColor=default;resizable=1;fillColor=#222222;gradientColor=none;gradientDirection=east;strokeColor=none;" parent="lOCSN8-xL9tDfDZF2J6v-119" vertex="1">
          <mxGeometry x="84" y="18" width="2" height="6" as="geometry" />
        </mxCell>
        <mxCell id="lOCSN8-xL9tDfDZF2J6v-166" value="" style="group" parent="lOCSN8-xL9tDfDZF2J6v-213" vertex="1" connectable="0">
          <mxGeometry x="333" width="109" height="26" as="geometry" />
        </mxCell>
        <mxCell id="lOCSN8-xL9tDfDZF2J6v-167" value="" style="rounded=0;whiteSpace=wrap;html=1;strokeColor=none;fillColor=#222222;strokeWidth=1;movable=1;resizable=1;rotatable=1;deletable=1;editable=1;locked=0;connectable=1;container=0;" parent="lOCSN8-xL9tDfDZF2J6v-166" vertex="1">
          <mxGeometry width="109" height="26" as="geometry" />
        </mxCell>
        <mxCell id="lOCSN8-xL9tDfDZF2J6v-168" value="" style="rounded=0;whiteSpace=wrap;html=1;strokeColor=none;fillColor=#333333;strokeWidth=1;movable=1;resizable=1;rotatable=1;deletable=1;editable=1;locked=0;connectable=1;container=0;gradientColor=#222222;gradientDirection=east;" parent="lOCSN8-xL9tDfDZF2J6v-166" vertex="1">
          <mxGeometry x="30" width="59" height="26" as="geometry" />
        </mxCell>
        <mxCell id="lOCSN8-xL9tDfDZF2J6v-169" value="" style="rounded=0;whiteSpace=wrap;html=1;strokeColor=none;fillColor=#333333;strokeWidth=1;movable=1;resizable=1;rotatable=1;deletable=1;editable=1;locked=0;connectable=1;container=0;gradientColor=#222222;gradientDirection=west;" parent="lOCSN8-xL9tDfDZF2J6v-166" vertex="1">
          <mxGeometry width="30" height="26" as="geometry" />
        </mxCell>
        <mxCell id="lOCSN8-xL9tDfDZF2J6v-170" value="" style="rounded=0;whiteSpace=wrap;html=1;strokeColor=none;fillColor=#333333;strokeWidth=1;movable=1;resizable=1;rotatable=1;deletable=1;editable=1;locked=0;connectable=1;container=0;gradientColor=#222222;gradientDirection=west;" parent="lOCSN8-xL9tDfDZF2J6v-166" vertex="1">
          <mxGeometry x="89" width="20" height="26" as="geometry" />
        </mxCell>
        <mxCell id="lOCSN8-xL9tDfDZF2J6v-171" value="" style="rounded=1;whiteSpace=wrap;html=1;strokeColor=none;fillColor=#111111;strokeWidth=0.1;movable=1;resizable=1;rotatable=1;deletable=1;editable=1;locked=0;connectable=1;container=0;gradientColor=none;gradientDirection=west;arcSize=32;" parent="lOCSN8-xL9tDfDZF2J6v-166" vertex="1">
          <mxGeometry x="2" y="3" width="5.5" height="5.5" as="geometry" />
        </mxCell>
        <mxCell id="lOCSN8-xL9tDfDZF2J6v-172" value="" style="rounded=1;whiteSpace=wrap;html=1;strokeColor=none;fillColor=#111111;strokeWidth=0.1;movable=1;resizable=1;rotatable=1;deletable=1;editable=1;locked=0;connectable=1;container=0;gradientColor=none;gradientDirection=west;arcSize=32;" parent="lOCSN8-xL9tDfDZF2J6v-166" vertex="1">
          <mxGeometry x="8.5" y="3" width="5.5" height="5.5" as="geometry" />
        </mxCell>
        <mxCell id="lOCSN8-xL9tDfDZF2J6v-173" value="" style="rounded=1;whiteSpace=wrap;html=1;strokeColor=none;fillColor=#111111;strokeWidth=0.1;movable=1;resizable=1;rotatable=1;deletable=1;editable=1;locked=0;connectable=1;container=0;gradientColor=none;gradientDirection=west;arcSize=32;" parent="lOCSN8-xL9tDfDZF2J6v-166" vertex="1">
          <mxGeometry x="15" y="3" width="5.5" height="5.5" as="geometry" />
        </mxCell>
        <mxCell id="lOCSN8-xL9tDfDZF2J6v-174" value="" style="rounded=1;whiteSpace=wrap;html=1;strokeColor=none;fillColor=#111111;strokeWidth=0.1;movable=1;resizable=1;rotatable=1;deletable=1;editable=1;locked=0;connectable=1;container=0;gradientColor=none;gradientDirection=west;arcSize=32;" parent="lOCSN8-xL9tDfDZF2J6v-166" vertex="1">
          <mxGeometry x="21.5" y="3" width="5.5" height="5.5" as="geometry" />
        </mxCell>
        <mxCell id="lOCSN8-xL9tDfDZF2J6v-175" value="" style="rounded=1;whiteSpace=wrap;html=1;strokeColor=none;fillColor=#111111;strokeWidth=0.1;movable=1;resizable=1;rotatable=1;deletable=1;editable=1;locked=0;connectable=1;container=0;gradientColor=none;gradientDirection=west;arcSize=32;" parent="lOCSN8-xL9tDfDZF2J6v-166" vertex="1">
          <mxGeometry x="28" y="3" width="5.5" height="5.5" as="geometry" />
        </mxCell>
        <mxCell id="lOCSN8-xL9tDfDZF2J6v-176" value="" style="rounded=1;whiteSpace=wrap;html=1;strokeColor=none;fillColor=#111111;strokeWidth=0.1;movable=1;resizable=1;rotatable=1;deletable=1;editable=1;locked=0;connectable=1;container=0;gradientColor=none;gradientDirection=west;arcSize=32;" parent="lOCSN8-xL9tDfDZF2J6v-166" vertex="1">
          <mxGeometry x="34.5" y="3" width="5.5" height="5.5" as="geometry" />
        </mxCell>
        <mxCell id="lOCSN8-xL9tDfDZF2J6v-177" value="" style="rounded=1;whiteSpace=wrap;html=1;strokeColor=none;fillColor=#111111;strokeWidth=0.1;movable=1;resizable=1;rotatable=1;deletable=1;editable=1;locked=0;connectable=1;container=0;gradientColor=none;gradientDirection=west;arcSize=32;" parent="lOCSN8-xL9tDfDZF2J6v-166" vertex="1">
          <mxGeometry x="41" y="3" width="5.5" height="5.5" as="geometry" />
        </mxCell>
        <mxCell id="lOCSN8-xL9tDfDZF2J6v-178" value="" style="rounded=1;whiteSpace=wrap;html=1;strokeColor=none;fillColor=#111111;strokeWidth=0.1;movable=1;resizable=1;rotatable=1;deletable=1;editable=1;locked=0;connectable=1;container=0;gradientColor=none;gradientDirection=west;arcSize=32;" parent="lOCSN8-xL9tDfDZF2J6v-166" vertex="1">
          <mxGeometry x="47.5" y="3" width="5.5" height="5.5" as="geometry" />
        </mxCell>
        <mxCell id="lOCSN8-xL9tDfDZF2J6v-179" value="" style="rounded=1;whiteSpace=wrap;html=1;strokeColor=none;fillColor=#111111;strokeWidth=0.1;movable=1;resizable=1;rotatable=1;deletable=1;editable=1;locked=0;connectable=1;container=0;gradientColor=none;gradientDirection=west;arcSize=32;" parent="lOCSN8-xL9tDfDZF2J6v-166" vertex="1">
          <mxGeometry x="54" y="3" width="5.5" height="5.5" as="geometry" />
        </mxCell>
        <mxCell id="lOCSN8-xL9tDfDZF2J6v-180" value="" style="rounded=1;whiteSpace=wrap;html=1;strokeColor=none;fillColor=#111111;strokeWidth=0.1;movable=1;resizable=1;rotatable=1;deletable=1;editable=1;locked=0;connectable=1;container=0;gradientColor=none;gradientDirection=west;arcSize=32;" parent="lOCSN8-xL9tDfDZF2J6v-166" vertex="1">
          <mxGeometry x="60.5" y="3" width="5.5" height="5.5" as="geometry" />
        </mxCell>
        <mxCell id="lOCSN8-xL9tDfDZF2J6v-181" value="" style="rounded=1;whiteSpace=wrap;html=1;strokeColor=none;fillColor=#111111;strokeWidth=0.1;movable=1;resizable=1;rotatable=1;deletable=1;editable=1;locked=0;connectable=1;container=0;gradientColor=none;gradientDirection=west;arcSize=32;" parent="lOCSN8-xL9tDfDZF2J6v-166" vertex="1">
          <mxGeometry x="67" y="3" width="5.5" height="5.5" as="geometry" />
        </mxCell>
        <mxCell id="lOCSN8-xL9tDfDZF2J6v-182" value="" style="rounded=1;whiteSpace=wrap;html=1;strokeColor=none;fillColor=#111111;strokeWidth=0.1;movable=1;resizable=1;rotatable=1;deletable=1;editable=1;locked=0;connectable=1;container=0;gradientColor=none;gradientDirection=west;arcSize=32;" parent="lOCSN8-xL9tDfDZF2J6v-166" vertex="1">
          <mxGeometry x="73.5" y="3" width="5.5" height="5.5" as="geometry" />
        </mxCell>
        <mxCell id="lOCSN8-xL9tDfDZF2J6v-183" value="" style="rounded=1;whiteSpace=wrap;html=1;strokeColor=none;fillColor=#111111;strokeWidth=0.1;movable=1;resizable=1;rotatable=1;deletable=1;editable=1;locked=0;connectable=1;container=0;gradientColor=none;gradientDirection=west;arcSize=32;" parent="lOCSN8-xL9tDfDZF2J6v-166" vertex="1">
          <mxGeometry x="80" y="3" width="5.5" height="5.5" as="geometry" />
        </mxCell>
        <mxCell id="lOCSN8-xL9tDfDZF2J6v-184" value="" style="rounded=1;whiteSpace=wrap;html=1;strokeColor=none;fillColor=#111111;strokeWidth=0.1;movable=1;resizable=1;rotatable=1;deletable=1;editable=1;locked=0;connectable=1;container=0;gradientColor=none;gradientDirection=west;arcSize=32;" parent="lOCSN8-xL9tDfDZF2J6v-166" vertex="1">
          <mxGeometry x="86.5" y="3" width="5.5" height="5.5" as="geometry" />
        </mxCell>
        <mxCell id="lOCSN8-xL9tDfDZF2J6v-185" value="" style="rounded=1;whiteSpace=wrap;html=1;strokeColor=none;fillColor=#111111;strokeWidth=0.1;movable=1;resizable=1;rotatable=1;deletable=1;editable=1;locked=0;connectable=1;container=0;gradientColor=none;gradientDirection=west;arcSize=32;" parent="lOCSN8-xL9tDfDZF2J6v-166" vertex="1">
          <mxGeometry x="93" y="3" width="5.5" height="5.5" as="geometry" />
        </mxCell>
        <mxCell id="lOCSN8-xL9tDfDZF2J6v-186" value="" style="rounded=1;whiteSpace=wrap;html=1;strokeColor=none;fillColor=#111111;strokeWidth=0.1;movable=1;resizable=1;rotatable=1;deletable=1;editable=1;locked=0;connectable=1;container=0;gradientColor=none;gradientDirection=west;arcSize=32;" parent="lOCSN8-xL9tDfDZF2J6v-166" vertex="1">
          <mxGeometry x="2" y="9.5" width="5.5" height="5.5" as="geometry" />
        </mxCell>
        <mxCell id="lOCSN8-xL9tDfDZF2J6v-187" value="" style="rounded=1;whiteSpace=wrap;html=1;strokeColor=none;fillColor=#111111;strokeWidth=0.1;movable=1;resizable=1;rotatable=1;deletable=1;editable=1;locked=0;connectable=1;container=0;gradientColor=none;gradientDirection=west;arcSize=32;" parent="lOCSN8-xL9tDfDZF2J6v-166" vertex="1">
          <mxGeometry x="8.5" y="9.5" width="5.5" height="5.5" as="geometry" />
        </mxCell>
        <mxCell id="lOCSN8-xL9tDfDZF2J6v-188" value="" style="rounded=1;whiteSpace=wrap;html=1;strokeColor=none;fillColor=#111111;strokeWidth=0.1;movable=1;resizable=1;rotatable=1;deletable=1;editable=1;locked=0;connectable=1;container=0;gradientColor=none;gradientDirection=west;arcSize=32;" parent="lOCSN8-xL9tDfDZF2J6v-166" vertex="1">
          <mxGeometry x="15" y="9.5" width="5.5" height="5.5" as="geometry" />
        </mxCell>
        <mxCell id="lOCSN8-xL9tDfDZF2J6v-189" value="" style="rounded=1;whiteSpace=wrap;html=1;strokeColor=none;fillColor=#111111;strokeWidth=0.1;movable=1;resizable=1;rotatable=1;deletable=1;editable=1;locked=0;connectable=1;container=0;gradientColor=none;gradientDirection=west;arcSize=32;" parent="lOCSN8-xL9tDfDZF2J6v-166" vertex="1">
          <mxGeometry x="21.5" y="9.5" width="5.5" height="5.5" as="geometry" />
        </mxCell>
        <mxCell id="lOCSN8-xL9tDfDZF2J6v-190" value="" style="rounded=1;whiteSpace=wrap;html=1;strokeColor=none;fillColor=#111111;strokeWidth=0.1;movable=1;resizable=1;rotatable=1;deletable=1;editable=1;locked=0;connectable=1;container=0;gradientColor=none;gradientDirection=west;arcSize=32;" parent="lOCSN8-xL9tDfDZF2J6v-166" vertex="1">
          <mxGeometry x="28" y="9.5" width="5.5" height="5.5" as="geometry" />
        </mxCell>
        <mxCell id="lOCSN8-xL9tDfDZF2J6v-191" value="" style="rounded=1;whiteSpace=wrap;html=1;strokeColor=none;fillColor=#111111;strokeWidth=0.1;movable=1;resizable=1;rotatable=1;deletable=1;editable=1;locked=0;connectable=1;container=0;gradientColor=none;gradientDirection=west;arcSize=32;" parent="lOCSN8-xL9tDfDZF2J6v-166" vertex="1">
          <mxGeometry x="34.5" y="9.5" width="5.5" height="5.5" as="geometry" />
        </mxCell>
        <mxCell id="lOCSN8-xL9tDfDZF2J6v-192" value="" style="rounded=1;whiteSpace=wrap;html=1;strokeColor=none;fillColor=#111111;strokeWidth=0.1;movable=1;resizable=1;rotatable=1;deletable=1;editable=1;locked=0;connectable=1;container=0;gradientColor=none;gradientDirection=west;arcSize=32;" parent="lOCSN8-xL9tDfDZF2J6v-166" vertex="1">
          <mxGeometry x="41" y="9.5" width="5.5" height="5.5" as="geometry" />
        </mxCell>
        <mxCell id="lOCSN8-xL9tDfDZF2J6v-193" value="" style="rounded=1;whiteSpace=wrap;html=1;strokeColor=none;fillColor=#111111;strokeWidth=0.1;movable=1;resizable=1;rotatable=1;deletable=1;editable=1;locked=0;connectable=1;container=0;gradientColor=none;gradientDirection=west;arcSize=32;" parent="lOCSN8-xL9tDfDZF2J6v-166" vertex="1">
          <mxGeometry x="47.5" y="9.5" width="5.5" height="5.5" as="geometry" />
        </mxCell>
        <mxCell id="lOCSN8-xL9tDfDZF2J6v-194" value="" style="rounded=1;whiteSpace=wrap;html=1;strokeColor=none;fillColor=#111111;strokeWidth=0.1;movable=1;resizable=1;rotatable=1;deletable=1;editable=1;locked=0;connectable=1;container=0;gradientColor=none;gradientDirection=west;arcSize=32;" parent="lOCSN8-xL9tDfDZF2J6v-166" vertex="1">
          <mxGeometry x="54" y="9.5" width="5.5" height="5.5" as="geometry" />
        </mxCell>
        <mxCell id="lOCSN8-xL9tDfDZF2J6v-195" value="" style="rounded=1;whiteSpace=wrap;html=1;strokeColor=none;fillColor=#111111;strokeWidth=0.1;movable=1;resizable=1;rotatable=1;deletable=1;editable=1;locked=0;connectable=1;container=0;gradientColor=none;gradientDirection=west;arcSize=32;" parent="lOCSN8-xL9tDfDZF2J6v-166" vertex="1">
          <mxGeometry x="60.5" y="9.5" width="5.5" height="5.5" as="geometry" />
        </mxCell>
        <mxCell id="lOCSN8-xL9tDfDZF2J6v-196" value="" style="rounded=1;whiteSpace=wrap;html=1;strokeColor=none;fillColor=#111111;strokeWidth=0.1;movable=1;resizable=1;rotatable=1;deletable=1;editable=1;locked=0;connectable=1;container=0;gradientColor=none;gradientDirection=west;arcSize=32;" parent="lOCSN8-xL9tDfDZF2J6v-166" vertex="1">
          <mxGeometry x="67" y="9.5" width="5.5" height="5.5" as="geometry" />
        </mxCell>
        <mxCell id="lOCSN8-xL9tDfDZF2J6v-197" value="" style="rounded=1;whiteSpace=wrap;html=1;strokeColor=none;fillColor=#111111;strokeWidth=0.1;movable=1;resizable=1;rotatable=1;deletable=1;editable=1;locked=0;connectable=1;container=0;gradientColor=none;gradientDirection=west;arcSize=32;" parent="lOCSN8-xL9tDfDZF2J6v-166" vertex="1">
          <mxGeometry x="73.5" y="9.5" width="5.5" height="5.5" as="geometry" />
        </mxCell>
        <mxCell id="lOCSN8-xL9tDfDZF2J6v-198" value="" style="rounded=1;whiteSpace=wrap;html=1;strokeColor=none;fillColor=#111111;strokeWidth=0.1;movable=1;resizable=1;rotatable=1;deletable=1;editable=1;locked=0;connectable=1;container=0;gradientColor=none;gradientDirection=west;arcSize=32;" parent="lOCSN8-xL9tDfDZF2J6v-166" vertex="1">
          <mxGeometry x="80" y="9.5" width="5.5" height="5.5" as="geometry" />
        </mxCell>
        <mxCell id="lOCSN8-xL9tDfDZF2J6v-199" value="" style="rounded=1;whiteSpace=wrap;html=1;strokeColor=none;fillColor=#111111;strokeWidth=0.1;movable=1;resizable=1;rotatable=1;deletable=1;editable=1;locked=0;connectable=1;container=0;gradientColor=none;gradientDirection=west;arcSize=32;" parent="lOCSN8-xL9tDfDZF2J6v-166" vertex="1">
          <mxGeometry x="86.5" y="9.5" width="5.5" height="5.5" as="geometry" />
        </mxCell>
        <mxCell id="lOCSN8-xL9tDfDZF2J6v-200" value="" style="rounded=1;whiteSpace=wrap;html=1;strokeColor=none;fillColor=#111111;strokeWidth=0.1;movable=1;resizable=1;rotatable=1;deletable=1;editable=1;locked=0;connectable=1;container=0;gradientColor=none;gradientDirection=west;arcSize=32;" parent="lOCSN8-xL9tDfDZF2J6v-166" vertex="1">
          <mxGeometry x="93" y="9.5" width="5.5" height="5.5" as="geometry" />
        </mxCell>
        <mxCell id="lOCSN8-xL9tDfDZF2J6v-201" value="" style="rounded=1;whiteSpace=wrap;html=1;strokeColor=#111111;fillColor=#008a00;fontColor=#ffffff;container=0;arcSize=50;strokeWidth=0.3;" parent="lOCSN8-xL9tDfDZF2J6v-166" vertex="1">
          <mxGeometry x="104" y="5" width="4" height="4" as="geometry" />
        </mxCell>
        <mxCell id="lOCSN8-xL9tDfDZF2J6v-202" value="" style="rounded=1;whiteSpace=wrap;html=1;strokeColor=#111111;fillColor=#750000;fontColor=#ffffff;container=0;arcSize=50;strokeWidth=0.3;" parent="lOCSN8-xL9tDfDZF2J6v-166" vertex="1">
          <mxGeometry x="104" y="10" width="4" height="4" as="geometry" />
        </mxCell>
        <mxCell id="lOCSN8-xL9tDfDZF2J6v-203" value="" style="strokeWidth=0.1;html=1;shape=mxgraph.flowchart.database;whiteSpace=wrap;strokeColor=#010101;fillColor=none;movable=1;resizable=1;rotatable=1;deletable=1;editable=1;locked=0;connectable=1;container=0;" parent="lOCSN8-xL9tDfDZF2J6v-166" vertex="1">
          <mxGeometry x="100" y="5.5" width="3" height="3" as="geometry" />
        </mxCell>
        <mxCell id="lOCSN8-xL9tDfDZF2J6v-204" value="" style="strokeWidth=0.1;html=1;shape=mxgraph.flowchart.database;whiteSpace=wrap;strokeColor=#010101;fillColor=none;movable=1;resizable=1;rotatable=1;deletable=1;editable=1;locked=0;connectable=1;container=0;" parent="lOCSN8-xL9tDfDZF2J6v-166" vertex="1">
          <mxGeometry x="100" y="10.5" width="3" height="3" as="geometry" />
        </mxCell>
        <mxCell id="lOCSN8-xL9tDfDZF2J6v-205" value="" style="shape=mxgraph.sysml.x;strokeWidth=0.1;strokeColor=#010101;container=0;" parent="lOCSN8-xL9tDfDZF2J6v-166" vertex="1">
          <mxGeometry x="100" y="10.5" width="3" height="3" as="geometry" />
        </mxCell>
        <mxCell id="lOCSN8-xL9tDfDZF2J6v-206" value="" style="rounded=0;whiteSpace=wrap;html=1;strokeColor=none;fillColor=#111111;strokeWidth=0.1;movable=1;resizable=1;rotatable=1;deletable=1;editable=1;locked=0;connectable=1;container=0;gradientColor=none;gradientDirection=west;" parent="lOCSN8-xL9tDfDZF2J6v-166" vertex="1">
          <mxGeometry y="17" width="109" height="8" as="geometry" />
        </mxCell>
        <mxCell id="lOCSN8-xL9tDfDZF2J6v-207" value="" style="rounded=0;whiteSpace=wrap;html=1;strokeColor=none;fillColor=#333333;strokeWidth=1;movable=1;resizable=1;rotatable=1;deletable=1;editable=1;locked=0;connectable=1;container=0;gradientColor=#222222;gradientDirection=east;" parent="lOCSN8-xL9tDfDZF2J6v-166" vertex="1">
          <mxGeometry x="34" y="18" width="50" height="6" as="geometry" />
        </mxCell>
        <mxCell id="lOCSN8-xL9tDfDZF2J6v-208" value="" style="rounded=0;whiteSpace=wrap;html=1;strokeColor=none;fillColor=#333333;strokeWidth=1;movable=1;resizable=1;rotatable=1;deletable=1;editable=1;locked=0;connectable=1;container=0;gradientColor=#222222;gradientDirection=west;" parent="lOCSN8-xL9tDfDZF2J6v-166" vertex="1">
          <mxGeometry x="4" y="18" width="30" height="6" as="geometry" />
        </mxCell>
        <mxCell id="lOCSN8-xL9tDfDZF2J6v-209" value="" style="rounded=0;whiteSpace=wrap;html=1;strokeColor=#111111;fillColor=none;strokeWidth=0.1;movable=1;resizable=1;rotatable=1;deletable=1;editable=1;locked=0;connectable=1;container=0;gradientColor=none;gradientDirection=west;" parent="lOCSN8-xL9tDfDZF2J6v-166" vertex="1">
          <mxGeometry x="6" y="18.5" width="27" height="5" as="geometry" />
        </mxCell>
        <mxCell id="lOCSN8-xL9tDfDZF2J6v-210" value="" style="rounded=0;whiteSpace=wrap;html=1;strokeColor=#111111;fillColor=none;strokeWidth=0.1;movable=1;resizable=1;rotatable=1;deletable=1;editable=1;locked=0;connectable=1;container=0;gradientColor=#222222;gradientDirection=east;" parent="lOCSN8-xL9tDfDZF2J6v-166" vertex="1">
          <mxGeometry x="35" y="18.5" width="28" height="5" as="geometry" />
        </mxCell>
        <mxCell id="lOCSN8-xL9tDfDZF2J6v-211" value="" style="rounded=0;whiteSpace=wrap;html=1;strokeColor=none;fillColor=#570000;strokeWidth=1;movable=1;resizable=1;rotatable=1;deletable=1;editable=1;locked=0;connectable=1;container=0;gradientDirection=east;fontColor=#ffffff;gradientColor=#750000;" parent="lOCSN8-xL9tDfDZF2J6v-166" vertex="1">
          <mxGeometry x="84" y="18" width="14.5" height="6" as="geometry" />
        </mxCell>
        <mxCell id="lOCSN8-xL9tDfDZF2J6v-212" value="" style="shape=or;whiteSpace=wrap;html=1;rounded=0;strokeWidth=1;align=center;verticalAlign=middle;fontFamily=Helvetica;fontSize=12;fontColor=default;resizable=1;fillColor=#222222;gradientColor=none;gradientDirection=east;strokeColor=none;" parent="lOCSN8-xL9tDfDZF2J6v-166" vertex="1">
          <mxGeometry x="84" y="18" width="2" height="6" as="geometry" />
        </mxCell>
        <mxCell id="lOCSN8-xL9tDfDZF2J6v-214" value="" style="rounded=0;whiteSpace=wrap;html=1;strokeColor=none;fillColor=#000000;strokeWidth=1;movable=1;resizable=1;rotatable=1;deletable=1;editable=1;locked=0;connectable=1;container=0;" parent="YWnN6yYvFibIZi6fZtN4-12" vertex="1">
          <mxGeometry x="352.3" y="0.5" width="12" height="12" as="geometry" />
        </mxCell>
        <mxCell id="lOCSN8-xL9tDfDZF2J6v-218" value="" style="rounded=0;whiteSpace=wrap;html=1;strokeColor=none;fillColor=#000000;strokeWidth=1;movable=1;resizable=1;rotatable=1;deletable=1;editable=1;locked=0;connectable=1;container=0;" parent="YWnN6yYvFibIZi6fZtN4-12" vertex="1">
          <mxGeometry x="339.3" y="2.5" width="10" height="10" as="geometry" />
        </mxCell>
        <mxCell id="lOCSN8-xL9tDfDZF2J6v-221" value="" style="rounded=0;whiteSpace=wrap;html=1;strokeColor=none;fillColor=#000000;strokeWidth=1;movable=1;resizable=1;rotatable=1;deletable=1;editable=1;locked=0;connectable=1;container=0;" parent="YWnN6yYvFibIZi6fZtN4-12" vertex="1">
          <mxGeometry x="365.3" y="0.5" width="12" height="12" as="geometry" />
        </mxCell>
        <mxCell id="lOCSN8-xL9tDfDZF2J6v-222" value="" style="rounded=0;whiteSpace=wrap;html=1;strokeColor=none;fillColor=#000000;strokeWidth=1;movable=1;resizable=1;rotatable=1;deletable=1;editable=1;locked=0;connectable=1;container=0;" parent="YWnN6yYvFibIZi6fZtN4-12" vertex="1">
          <mxGeometry x="378.3" y="0.5" width="12" height="12" as="geometry" />
        </mxCell>
        <mxCell id="lOCSN8-xL9tDfDZF2J6v-223" value="" style="rounded=0;whiteSpace=wrap;html=1;strokeColor=none;fillColor=#000000;strokeWidth=1;movable=1;resizable=1;rotatable=1;deletable=1;editable=1;locked=0;connectable=1;container=0;" parent="YWnN6yYvFibIZi6fZtN4-12" vertex="1">
          <mxGeometry x="391.3" y="0.5" width="5" height="12" as="geometry" />
        </mxCell>
        <mxCell id="lOCSN8-xL9tDfDZF2J6v-225" value="" style="rounded=0;whiteSpace=wrap;html=1;strokeColor=none;fillColor=#000000;strokeWidth=1;movable=1;resizable=1;rotatable=1;deletable=1;editable=1;locked=0;connectable=1;container=0;" parent="YWnN6yYvFibIZi6fZtN4-12" vertex="1">
          <mxGeometry x="327.3" y="2.5" width="10" height="10" as="geometry" />
        </mxCell>
        <mxCell id="lOCSN8-xL9tDfDZF2J6v-226" value="" style="rounded=0;whiteSpace=wrap;html=1;strokeColor=none;fillColor=#000000;strokeWidth=1;movable=1;resizable=1;rotatable=1;deletable=1;editable=1;locked=0;connectable=1;container=0;" parent="YWnN6yYvFibIZi6fZtN4-12" vertex="1">
          <mxGeometry x="315.3" y="2.5" width="10" height="10" as="geometry" />
        </mxCell>
        <mxCell id="lOCSN8-xL9tDfDZF2J6v-227" value="" style="rounded=0;whiteSpace=wrap;html=1;strokeColor=none;fillColor=#000000;strokeWidth=1;movable=1;resizable=1;rotatable=1;deletable=1;editable=1;locked=0;connectable=1;container=0;" parent="YWnN6yYvFibIZi6fZtN4-12" vertex="1">
          <mxGeometry x="303.3" y="2.5" width="10" height="10" as="geometry" />
        </mxCell>
        <mxCell id="lOCSN8-xL9tDfDZF2J6v-228" value="" style="rounded=0;whiteSpace=wrap;html=1;strokeColor=none;fillColor=#000000;strokeWidth=1;movable=1;resizable=1;rotatable=1;deletable=1;editable=1;locked=0;connectable=1;container=0;" parent="YWnN6yYvFibIZi6fZtN4-12" vertex="1">
          <mxGeometry x="291.3" y="2.5" width="10" height="10" as="geometry" />
        </mxCell>
        <mxCell id="lOCSN8-xL9tDfDZF2J6v-229" value="" style="rounded=0;whiteSpace=wrap;html=1;strokeColor=none;fillColor=#000000;strokeWidth=1;movable=1;resizable=1;rotatable=1;deletable=1;editable=1;locked=0;connectable=1;container=0;" parent="YWnN6yYvFibIZi6fZtN4-12" vertex="1">
          <mxGeometry x="279.3" y="2.5" width="10" height="10" as="geometry" />
        </mxCell>
        <mxCell id="lOCSN8-xL9tDfDZF2J6v-230" value="" style="rounded=0;whiteSpace=wrap;html=1;strokeColor=none;fillColor=#000000;strokeWidth=1;movable=1;resizable=1;rotatable=1;deletable=1;editable=1;locked=0;connectable=1;container=0;" parent="YWnN6yYvFibIZi6fZtN4-12" vertex="1">
          <mxGeometry x="267.3" y="2.5" width="10" height="10" as="geometry" />
        </mxCell>
        <mxCell id="lOCSN8-xL9tDfDZF2J6v-231" value="" style="rounded=0;whiteSpace=wrap;html=1;strokeColor=none;fillColor=#000000;strokeWidth=1;movable=1;resizable=1;rotatable=1;deletable=1;editable=1;locked=0;connectable=1;container=0;" parent="YWnN6yYvFibIZi6fZtN4-12" vertex="1">
          <mxGeometry x="255.3" y="2.5" width="10" height="10" as="geometry" />
        </mxCell>
        <mxCell id="lOCSN8-xL9tDfDZF2J6v-233" value="" style="rounded=0;whiteSpace=wrap;html=1;strokeColor=none;fillColor=#000000;strokeWidth=1;movable=1;resizable=1;rotatable=1;deletable=1;editable=1;locked=0;connectable=1;container=0;" parent="YWnN6yYvFibIZi6fZtN4-12" vertex="1">
          <mxGeometry x="243.3" y="0.5" width="8" height="12" as="geometry" />
        </mxCell>
        <mxCell id="lOCSN8-xL9tDfDZF2J6v-242" value="" style="rounded=0;whiteSpace=wrap;html=1;strokeColor=none;fillColor=#000000;strokeWidth=1;movable=1;resizable=1;rotatable=1;deletable=1;editable=1;locked=0;connectable=1;container=0;" parent="YWnN6yYvFibIZi6fZtN4-12" vertex="1">
          <mxGeometry x="21.299999999999997" y="0.5" width="10" height="12" as="geometry" />
        </mxCell>
        <mxCell id="lOCSN8-xL9tDfDZF2J6v-243" value="" style="rounded=0;whiteSpace=wrap;html=1;strokeColor=none;fillColor=#000000;strokeWidth=1;movable=1;resizable=1;rotatable=1;deletable=1;editable=1;locked=0;connectable=1;container=0;" parent="YWnN6yYvFibIZi6fZtN4-12" vertex="1">
          <mxGeometry x="97.3" y="0.5" width="12" height="12" as="geometry" />
        </mxCell>
        <mxCell id="lOCSN8-xL9tDfDZF2J6v-244" value="" style="rounded=0;whiteSpace=wrap;html=1;strokeColor=none;fillColor=#000000;strokeWidth=1;movable=1;resizable=1;rotatable=1;deletable=1;editable=1;locked=0;connectable=1;container=0;" parent="YWnN6yYvFibIZi6fZtN4-12" vertex="1">
          <mxGeometry x="84.3" y="0.5" width="12" height="12" as="geometry" />
        </mxCell>
        <mxCell id="Ir_VSXHbq6t96VKqn-qa-1" value="" style="rounded=0;whiteSpace=wrap;html=1;strokeColor=none;fillColor=#000000;strokeWidth=1;movable=1;resizable=1;rotatable=1;deletable=1;editable=1;locked=0;connectable=1;container=0;" parent="YWnN6yYvFibIZi6fZtN4-12" vertex="1">
          <mxGeometry x="71.3" y="0.5" width="12" height="12" as="geometry" />
        </mxCell>
        <mxCell id="Ir_VSXHbq6t96VKqn-qa-2" value="" style="rounded=0;whiteSpace=wrap;html=1;strokeColor=none;fillColor=#000000;strokeWidth=1;movable=1;resizable=1;rotatable=1;deletable=1;editable=1;locked=0;connectable=1;container=0;" parent="YWnN6yYvFibIZi6fZtN4-12" vertex="1">
          <mxGeometry x="58.3" y="0.5" width="12" height="12" as="geometry" />
        </mxCell>
        <mxCell id="Ir_VSXHbq6t96VKqn-qa-3" value="" style="rounded=0;whiteSpace=wrap;html=1;strokeColor=none;fillColor=#000000;strokeWidth=1;movable=1;resizable=1;rotatable=1;deletable=1;editable=1;locked=0;connectable=1;container=0;" parent="YWnN6yYvFibIZi6fZtN4-12" vertex="1">
          <mxGeometry x="45.3" y="0.5" width="12" height="12" as="geometry" />
        </mxCell>
        <mxCell id="Ir_VSXHbq6t96VKqn-qa-4" value="" style="rounded=0;whiteSpace=wrap;html=1;strokeColor=none;fillColor=#000000;strokeWidth=1;movable=1;resizable=1;rotatable=1;deletable=1;editable=1;locked=0;connectable=1;container=0;" parent="YWnN6yYvFibIZi6fZtN4-12" vertex="1">
          <mxGeometry x="32.30000000000001" y="0.5" width="12" height="12" as="geometry" />
        </mxCell>
        <mxCell id="YWnN6yYvFibIZi6fZtN4-1" value="" style="rounded=0;whiteSpace=wrap;html=1;strokeColor=#111111;fillColor=#222222;strokeWidth=0.5;movable=1;resizable=1;rotatable=1;deletable=1;editable=1;locked=0;connectable=1;container=0;gradientColor=none;gradientDirection=west;" vertex="1" parent="YWnN6yYvFibIZi6fZtN4-12">
          <mxGeometry x="111.3" y="0.75" width="129" height="11.5" as="geometry" />
        </mxCell>
        <mxCell id="YWnN6yYvFibIZi6fZtN4-2" value="" style="rounded=0;whiteSpace=wrap;html=1;strokeColor=#111111;fillColor=#222222;strokeWidth=0.2;movable=1;resizable=1;rotatable=1;deletable=1;editable=1;locked=0;connectable=1;container=0;gradientColor=none;gradientDirection=west;" vertex="1" parent="YWnN6yYvFibIZi6fZtN4-12">
          <mxGeometry x="185.3" y="6" width="9" height="4" as="geometry" />
        </mxCell>
        <mxCell id="YWnN6yYvFibIZi6fZtN4-3" value="" style="rounded=1;whiteSpace=wrap;html=1;strokeColor=none;fillColor=#008a00;fontColor=#ffffff;container=0;arcSize=27;strokeWidth=0.3;" vertex="1" parent="YWnN6yYvFibIZi6fZtN4-12">
          <mxGeometry x="181" y="8.000000000000004" width="3" height="2" as="geometry" />
        </mxCell>
        <mxCell id="YWnN6yYvFibIZi6fZtN4-4" value="" style="rounded=1;whiteSpace=wrap;html=1;strokeColor=none;fillColor=#111111;fontColor=#ffffff;container=0;arcSize=50;strokeWidth=0.3;" vertex="1" parent="YWnN6yYvFibIZi6fZtN4-12">
          <mxGeometry x="197" y="9.000000000000004" width="1" height="1" as="geometry" />
        </mxCell>
        <mxCell id="YWnN6yYvFibIZi6fZtN4-11" value="" style="shape=image;verticalLabelPosition=bottom;labelBackgroundColor=default;verticalAlign=top;aspect=fixed;imageAspect=0;image=data:image/svg+xml,PHN2ZyB4bWxucz0iaHR0cDovL3d3dy53My5vcmcvMjAwMC9zdmciIHZlcnNpb249IjEuMSIgaGVpZ2h0PSIzMDUiIHdpZHRoPSI1MTAiIHZpZXdCb3g9IjAgMCA1MTAgMzA1Ij4mI3hhOyYjeGE7IDxnIGNsYXNzPSJsYXllciI+JiN4YTsgIDx0aXRsZT5MYXllciAxPC90aXRsZT4mI3hhOyAgPGcgdHJhbnNmb3JtPSJtYXRyaXgoNiwwLDAsNiw4My4xMjExNSwtMjQuNTMwMjcpIiBpZD0iZzEiIGZpbGwtcnVsZT0iZXZlbm9kZCIgZmlsbD0iIzAwMDAwMCI+JiN4YTsgICA8cGF0aCBpZD0icGF0aDEiIGZpbGw9IiNiZmJmYmYiIGQ9Im0yNC43OCw0LjQ2bDAuMDgsMC4wN2wwLjA3LDAuM2wwLjE1LDAuNDVsMC4yMywwLjY4bDAuMjIsMC42N2wwLjIzLDAuODJsMC4zNywwLjc2bDAuMjMsMC43NWwwLjIyLDAuNzVsMC4yMywwLjUybDAuMTUsMC41M2wwLjUyLDEuNWwwLjQ1LDEuMzVsMC4zOCwxLjEybDAuMjIsMC45OGwwLjIzLDAuNjdsMC4wNywwLjZsMC4xNSwwLjUzbDAsMC42N2wwLjA4LC0wLjE1bDAuMTUsLTAuMjJsMC4yMiwtMC4yM2wwLjIzLC0wLjQ1bDAuMywtMC40NWwwLjM3LC0wLjZsMC41MywtMC43NWwwLjc1LC0wLjgybDAuNzUsLTEuMDVsMS4wNSwtMS4yOGwxLjEyLC0xLjM1bDAuMywtMC4zN2wwLjM4LC0wLjQ1bDAuNTIsLTAuNmwwLjYsLTAuNzVsMC42LC0wLjY4bDAuNiwtMC43NWwwLjY4LC0wLjc1bDAuNTIsLTAuNmwwLjQ1LC0wLjZsMC40NSwtMC40NWwwLjIzLC0wLjNsMC4wNywtMC4wN2wxNy4yNSwwbDIuMSwwLjA3bDIuMDMsMC4yM2wxLjg3LDAuNDVsMS42NSwwLjZsMS41OCwwLjc1bDEuMjcsMC44OWwxLjEzLDAuOThsMC45LDEuMTNsMC42LDEuMmwwLjM3LDEuMjdsMC4wOCwxLjM1bC0wLjE1LDEuNWwtMC40NSwxLjQzbC0wLjgzLDEuMzVsLTAuOTcsMS4zNWwtMS4yLDEuMTJsLTEuNDMsMS4xM2wtMS41NywxLjA1bC0xLjgsMC44MmwtMS44LDAuODNsLTIuMDMsMC41MmwtMi4wMiwwLjQ1bC0yLjE4LDAuMjNsLTIuMSwwLjE1bC0xMS41NSwwbDMuNDUsLTE0LjU1bDguMSwwbC0yLjMyLDkuOTdsMS44LDBsMS41LC0wLjA3bDEuNDIsLTAuMjNsMS4yOCwtMC4yMmwxLjI3LC0wLjM4bDEuMiwtMC41MmwxLjEzLC0wLjY4bDAuOSwtMC42N2wwLjgyLC0wLjk4bDAuNTMsLTAuOTdsMC4zNywtMS4xM2wwLjE1LC0xLjEybC0wLjA3LC0wLjlsLTAuMywtMC45bC0wLjUzLC0wLjc2bC0wLjc1LC0wLjY3bC0wLjgyLC0wLjUybC0xLjEzLC0wLjQ1bC0xLjIsLTAuM2wtMS40MiwtMC4xNWwtMS40MywtMC4xNWwtOS44MiwwbC0xOC43NSwyMS4xNWwtNy4zNSwtMjAuN2wtMC4wOCwtMC4wOGwwLC0wLjA3bC0wLjA3LC0wLjE1bDAsLTAuMTVsLTAuMDgsMGwtMC4wNywtMC4wOGwtMC4wOCwwbC0wLjA3LDAuMDhsMCwwLjM3bDAuMDcsMC4wOGwwLDAuMDdsMC4yMywwLjc1bDAuMjIsMC44M2wwLjA4LDAuODJsMC4wNywwLjlsMCwwLjgzbC0wLjA3LDAuNzVsLTAuMDgsMC41MmwtMC41MiwxLjQzbC0wLjc1LDEuMzVsLTAuOTgsMS4zNWwtMS4yNywxLjEybC0xLjQzLDEuMTNsLTEuNTcsMS4wNWwtMS43MywwLjgybC0xLjg3LDAuODNsLTEuOTUsMC41MmwtMi4wMywwLjQ1bC0yLjE3LDAuMjNsLTIuMTgsMC4xNWwtMTEuNTUsMGwzLjQ1LC0xNC41NWw4LjE4LDBsLTIuMzMsOS45N2wxLjgsMGwxLjUsLTAuMDdsMS40MywtMC4yM2wxLjI3LC0wLjIybDEuMjgsLTAuMzhsMS4yLC0wLjUybDEuMTIsLTAuNjhsMC44MywtMC42N2wwLjc1LC0wLjk4bDAuNjcsLTAuOTdsMC4zOCwtMS4xM2wwLjE1LC0xLjEybC0wLjE1LC0wLjlsLTAuMjMsLTAuOWwtMC41MiwtMC43NmwtMC43NSwtMC42N2wtMC45LC0wLjUybC0xLjA1LC0wLjQ1bC0xLjI4LC0wLjNsLTEuMzUsLTAuMTVsLTEuNDIsLTAuMTVsLTEwLjA1LDBsMC45NywtNC41bDMxLjA1LDAiLz4mI3hhOyAgIDxwYXRoIGlkPSJwYXRoMiIgZmlsbD0iI2JmYmZiZiIgZD0ibTI0LjkzLDM3LjkxbC0xLjUsLTAuMDhsLTEuNDIsLTAuMDdsLTEuMzUsLTAuMDhsLTEuMTMsLTAuMTVsLTEuMDUsLTAuMTVsLTAuOTcsLTAuMjJsLTAuNjgsLTAuM2wtMC41MiwtMC4zbC0wLjQ1LC0wLjNsLTAuMDgsLTAuMjNsMC4wOCwtMC4zbDAuNDUsLTAuM2wwLjUyLC0wLjNsMC42OCwtMC4zbDAuOTcsLTAuMTVsMS4wNSwtMC4yMmwxLjEzLC0wLjE1bDEuMzUsLTAuMDhsMS40MiwtMC4wN2wyLjkzLDBsMS40MiwwLjA3bDEuMjgsMC4wOGwxLjIsMC4xNWwxLjA1LDAuMjJsMC45LDAuMTVsMC43NSwwLjNsMC41MiwwLjNsMC4zOCwwLjNsMC4wNywwLjNsLTAuMDcsMC4yM2wtMC4zOCwwLjNsLTAuNTIsMC4zbC0wLjc1LDAuM2wtMC45LDAuMjJsLTEuMDUsMC4xNWwtMS4yLDAuMTVsLTEuMjgsMC4wOGwtMS40MiwwLjA3bC0xLjQzLDAuMDh6bTEuNDMsLTcuNzNsLTMuNiwwLjA4bC0zLjYsMGwtMy40NSwwLjIybC0zLjMsMC4xNWwtMy4xNSwwLjE1bC0zLDAuMjNsLTIuODUsMC4yMmwtMi43OCwwLjNsLTIuNCwwLjNsLTIuNCwwLjQ1bC0yLjAyLDAuMzhsLTEuODgsMC4zN2wtMS41NywwLjM4bC0xLjM1LDAuNTJsLTEuMDUsMC40NWwtMC44MywwLjQ1bC0wLjQ1LDAuNmwtMC4xNSwwLjQ1bDAuMTUsMC41M2wwLjQ1LDAuNDVsMC44MywwLjUybDEuMDUsMC40NWwxLjM1LDAuNDVsMS41NywwLjQ1bDEuODgsMC40NWwyLjAyLDAuM2wyLjQsMC4zOGwyLjQsMC4zbDIuNzgsMC4zN2wyLjg1LDAuMjNsMywwLjIybDMuMTUsMC4yM2wzLjMsMC4wN2wzLjQ1LDAuMTVsMy42LDAuMDhsNy4yLDBsMy41MiwtMC4wOGwzLjQ1LC0wLjE1bDMuMywtMC4wN2wzLjE1LC0wLjIzbDMuMDgsLTAuMjJsMi43NywtMC4yM2wyLjc4LC0wLjM3bDIuNDcsLTAuM2wyLjMzLC0wLjM4bDIuMDIsLTAuM2wxLjg4LC0wLjQ1bDEuNTcsLTAuNDVsMS4zNSwtMC40NWwxLjEzLC0wLjQ1bDAuNzUsLTAuNTJsMC40NSwtMC40NWwwLjIyLC0wLjUzbC0wLjIyLC0wLjQ1bC0wLjQ1LC0wLjZsLTAuNzUsLTAuNDVsLTEuMTMsLTAuNDVsLTEuMzUsLTAuNTJsLTEuNTcsLTAuMzhsLTEuODgsLTAuMzdsLTIuMDIsLTAuMzhsLTIuMzMsLTAuNDVsLTIuNDcsLTAuM2wtMi43OCwtMC4zbC0yLjc3LC0wLjIybC0zLjA4LC0wLjIzbC0zLjE1LC0wLjE1bC0zLjMsLTAuMTVsLTMuNDUsLTAuMjJsLTMuNTIsMGwtMy42LC0wLjA4Ii8+JiN4YTsgICA8cGF0aCBpZD0icGF0aDMiIGZpbGw9IiNiZmJmYmYiIGQ9Im02NS41OCw0MC4zMWwtMC44MiwwbC0wLjUzLDIuODVsLTAuMzcsMGwwLjM3LC0yLjg1bC0wLjk3LDBsMCwtMC40NWwyLjQsMGwtMC4wOCwwLjQ1Ii8+JiN4YTsgICA8cGF0aCBpZD0icGF0aDQiIGZpbGw9IiNiZmJmYmYiIGQ9Im02OS4wMyw0My4xNmwtMC4zNywwbDAsLTIuNDhsLTAuMDgsMGwtMS4yNywyLjQ4bC0wLjYsLTIuNDhsLTAuODMsMi40OGwtMC40NSwwbDEuMTMsLTMuM2wwLjM3LDBsMC40NSwyLjI1bDEuMjgsLTIuMjVsMC4zNywwbDAsMy4zIi8+JiN4YTsgICA8cGF0aCBpZD0icGF0aDUiIGZpbGw9IiNiZmJmYmYiIGQ9Im02LjU2LDQ2LjIzbDAuOTcsMC4wOGwwLjksMC4xNWwwLjY4LDAuMjJsMC42NywwLjM4bDAuNDUsMC40NWwwLjIzLDAuNTJsMC4xNSwwLjc1bC0wLjA4LDAuNTNsLTAuMjIsMC40NWwtMC4zLDAuNTJsLTAuNDUsMC4zOGwtMC42OCwwLjIybC0wLjc1LDAuMTVsMy40NSwzLjUzbC0yLjg1LDBsLTMsLTMuMzhsMCwzLjM4bC0yLjMyLDBsMCwtOC4zM2wzLjE1LDB6bS0wLjQ1LDEuMzVsMC41MiwwbDAuNTMsMC4wOGwwLjUyLDAuMTVsMC4zLDAuMjJsMC4yMywwLjNsMC4wNywwLjUzbC0wLjA3LDAuMzdsLTAuMjMsMC4zbC0wLjMsMC4zbC0wLjUyLDAuMDhsLTAuNDUsMC4wN2wtMC42LDAuMDhsLTAuMzgsMGwwLC0yLjQ4bDAuMzgsMCIvPiYjeGE7ICAgPHBhdGggaWQ9InBhdGg2IiBmaWxsPSIjYmZiZmJmIiBkPSJtMjMuNzMsNTQuNTZsMS4yOCwtMC4wOGwxLjIsLTAuMjJsMC45NywtMC4zOGwwLjksLTAuNmwwLjY4LC0wLjZsMC40NSwtMC42N2wwLjM3LC0wLjgzbDAuMTUsLTAuNzVsLTAuMTUsLTAuOWwtMC4zNywtMC42N2wtMC40NSwtMC43NWwtMC42OCwtMC42bC0wLjksLTAuNTNsLTAuOTcsLTAuNDVsLTEuMiwtMC4yMmwtMS4yOCwtMC4wOGwtMS4yNywwLjA4bC0xLjEzLDAuMjJsLTAuOTcsMC40NWwtMC44MywwLjUzbC0wLjc1LDAuNmwtMC41MiwwLjc1bC0wLjMsMC42N2wtMC4xNSwwLjlsMC4xNSwwLjc1bDAuMywwLjgzbDAuNTIsMC42N2wwLjc1LDAuNmwwLjgzLDAuNmwwLjk3LDAuMzhsMS4xMywwLjIybDEuMjcsMC4wOHptMCwtNi44M2wwLjksMC4wOGwwLjc1LDAuMjJsMC42OCwwLjNsMC41MiwwLjQ1bDAuMzgsMC40NWwwLjIyLDAuNTNsMC4wOCwwLjZsLTAuMDgsMC41MmwtMC4yMiwwLjUzbC0wLjQ1LDAuNTJsLTAuNiwwLjQ1bC0wLjYsMC4zbC0wLjY4LDAuM2wtMC45LDAuMDhsLTAuNzUsLTAuMDhsLTAuODIsLTAuM2wtMC42LC0wLjNsLTAuNiwtMC40NWwtMC4zOCwtMC41MmwtMC4zLC0wLjUzbC0wLjA3LC0wLjUybDAuMDcsLTAuNmwwLjMsLTAuNTNsMC4zOCwtMC40NWwwLjUyLC0wLjQ1bDAuNjgsLTAuM2wwLjc1LC0wLjIybDAuODIsLTAuMDgiLz4mI3hhOyAgIDxwYXRoIGlkPSJwYXRoNyIgZmlsbD0iI2JmYmZiZiIgZD0ibTQ1Ljg2LDQ5LjQ2bC0yLjcsNS4xbC0wLjgzLDBsLTIuNjIsLTUuMWwtMS4xMyw1LjAybC0yLjMyLDBsMi4wMiwtOC4yNWwxLjY1LDBsMyw1LjI1bDIuNzgsLTUuMjVsMS43MiwwbDEuOCw4LjI1bC0yLjMyLDBsLTEuMDUsLTUuMDIiLz4mI3hhOyAgPC9nPiYjeGE7IDwvZz4mI3hhOzwvc3ZnPg==;" vertex="1" parent="YWnN6yYvFibIZi6fZtN4-12">
          <mxGeometry x="118" y="3.5" width="11.71" height="7" as="geometry" />
        </mxCell>
      </root>
    </mxGraphModel>
  </diagram>
</mxfile>
